<svg xmlns="http://www.w3.org/2000/svg" width="25.489" height="26.411" viewBox="0 0 25.489 26.411"><defs><style>.a{fill:#fff;}.b{opacity:0;}.c{fill:#e0a92b;}</style></defs><g transform="translate(-2057.616 -1773.324)"><g transform="translate(2063.555 1773.324)"><path class="a" d="M2123.62,1786.886a6.781,6.781,0,1,1,6.781-6.781A6.789,6.789,0,0,1,2123.62,1786.886Zm0-13.061a6.28,6.28,0,1,0,6.28,6.28A6.287,6.287,0,0,0,2123.62,1773.825Z" transform="translate(-2116.839 -1773.324)"/></g><g transform="translate(2057.616 1790.119)"><path class="a" d="M2083.1,1950.429h-25.489v-4.351a5.27,5.27,0,0,1,5.264-5.264h14.96a5.27,5.27,0,0,1,5.264,5.264Zm-24.988-.5H2082.6v-3.85a4.768,4.768,0,0,0-4.763-4.763h-14.96a4.768,4.768,0,0,0-4.763,4.763Z" transform="translate(-2057.616 -1940.813)"/></g></g><g class="b" transform="translate(-2057.616 -1773.324)"><g transform="translate(2063.555 1773.324)"><path class="c" d="M2123.62,1786.886a6.781,6.781,0,1,1,6.781-6.781A6.789,6.789,0,0,1,2123.62,1786.886Zm0-13.061a6.28,6.28,0,1,0,6.28,6.28A6.287,6.287,0,0,0,2123.62,1773.825Z" transform="translate(-2116.839 -1773.324)"/></g><g transform="translate(2057.616 1790.119)"><path class="c" d="M2083.1,1950.429h-25.489v-4.351a5.27,5.27,0,0,1,5.264-5.264h14.96a5.27,5.27,0,0,1,5.264,5.264Zm-24.988-.5H2082.6v-3.85a4.768,4.768,0,0,0-4.763-4.763h-14.96a4.768,4.768,0,0,0-4.763,4.763Z" transform="translate(-2057.616 -1940.813)"/></g></g></svg>