<svg xmlns="http://www.w3.org/2000/svg" xmlns:xlink="http://www.w3.org/1999/xlink" width="190.687" height="66.556" viewBox="0 0 190.687 66.556"><defs><style>.a{fill:#fff;}.b{clip-path:url(#a);}</style><clipPath id="a"><rect class="a" width="190.687" height="66.556"/></clipPath></defs><g class="b"><path class="a" d="M269.7,22.452c0-6.252.008-12.5-.015-18.758,0-.579.161-.7.712-.7q12.858.027,25.716,0c.562,0,.793.074.775.721,0,.54-.013.443-1.65.443-5.409,0-10.818.01-16.227-.015-.593,0-.757.127-.754.741.028,4.8.027,13.5,0,18.307,0,.629.114,1.93.806,1.923,4.274-.037,3.139,0,7.413-.034.61,0,.815.278.747.754,0,.335-.011.544-1.663.544-4.008,0-2.607.009-6.615-.012-.527,0-.69.114-.687.673.025,4.876.025,8.524,0,13.4,0,.585.165.71.724.709,5.7-.021,11.4,0,17.1-.025.586,0,.812.072.812.759,0,.558-.062.592-1.663.592q-12.423,0-24.847.015c-.6,0-.7-.213-.7-.815.025-6.277.015-12.95.015-19.227" transform="translate(-106.202 -1.181)"/><path class="a" d="M19.645,23.164c0,6.06-.007,12.685.013,18.744,0,.543-.661.7-.661.7H11.827s-.744-.142-.744-.763c.021-12.045.01-24.655.031-36.7,0-.675-.82-.847-.82-.847H0V3.057L31.11,3.041V4.3H20.384s-.757.13-.754.762c.025,6.035.015,12.069.015,18.1" transform="translate(0 -1.198)"/><path class="a" d="M79.63,26.134c.21-.028.329-.046.448-.059a16.245,16.245,0,0,0,7.975-2.739c3.507-2.507,5.753-5.719,5.566-10.245a9.225,9.225,0,0,0-4.285-7.775,14.028,14.028,0,0,0-7.6-2.247c-6.759-.1-13.521-.042-20.282-.069-.623,0-.484.371-.484.706,0,12.529,0,25.636-.012,38.165,0,.657,1.231.686,1.231.686l6.272.014s1.118-.052,1.115-.692c-.019-4.78,0-10.138-.023-14.918,0-.692.192-.632,1.291-.632,1.271,0,2.206-.04,3.808-.04,1.051,0,1.248.167,1.383.941a30.494,30.494,0,0,0,5.7,13.264c.667.872,1.61,1.965,2.707,1.978,2.806.034,8.384.008,12.005,0a.756.756,0,0,0,.382-1.415c-7.49-3.417-14.283-9.534-17.2-14.923m-4.175-.8c-1.784.059-3.573-.008-5.359.023-.479.008-.543-.167-.541-.583.015-3.355.008-6.709.008-10.064,0-3.307.012-6.613-.01-9.92,0-.536.089-.757.7-.734,2.145.082,4.294-.073,6.439.11,4.88.417,7.745,3.257,8.133,8.141a15.257,15.257,0,0,1-.961,7.17,8.8,8.8,0,0,1-8.406,5.856" transform="translate(-24.004 -1.181)"/><path class="a" d="M221.731,42.439h-8.787L198.108,3h11.049L220.2,34.773,221.7,39.2,234.509,2.913h1.134Z" transform="translate(-78.015 -1.147)"/><path class="a" d="M17.553,83.48H28.2v1.293H19.021V90.4h8.414v1.271H19.021v6.114h9.422v1.358H17.553Z" transform="translate(-6.912 -32.874)"/><path class="a" d="M48.03,91.148l-5.084-7.669h1.687L48.906,90.1h.044l4.229-6.617H54.8L49.739,91.17l5.3,7.976H53.31l-4.448-6.924h-.044L44.3,99.146H42.639Z" transform="translate(-16.791 -32.874)"/><path class="a" d="M71.2,83.48h6.157a4.728,4.728,0,0,1,3.681,1.358,4.219,4.219,0,0,1,1.1,3.024c0,2.892-1.686,4.469-4.973,4.469H72.665v6.814H71.2Zm5.85,7.6c2.541,0,3.594-1.205,3.594-3.177,0-2.016-1.206-3.133-3.462-3.133H72.665v6.311Z" transform="translate(-28.037 -32.874)"/><path class="a" d="M97.73,83.48h10.648v1.293H99.2V90.4h8.414v1.271H99.2v6.114h9.422v1.358H97.73Z" transform="translate(-38.486 -32.874)"/><path class="a" d="M124.7,83.48h6.99c2.826,0,4.448,1.622,4.448,4.229a3.55,3.55,0,0,1-2.629,3.769v.065c1.621.548,2.147,1.731,2.257,4.163.109,2.519.395,3.155.679,3.352v.087h-1.578c-.35-.241-.438-.832-.569-3.506-.132-2.717-1.074-3.484-3.352-3.484h-4.776v6.989H124.7Zm6.486,7.428c2.279,0,3.44-1.118,3.44-3.068s-.877-3.067-3.243-3.067h-5.214v6.135Z" transform="translate(-49.105 -32.874)"/><rect class="a" width="1.469" height="15.667" transform="translate(92.726 50.606)"/><path class="a" d="M165.507,83.48h10.648v1.293h-9.18V90.4h8.414v1.271h-8.414v6.114H176.4v1.358h-10.89Z" transform="translate(-65.177 -32.874)"/><path class="a" d="M192.474,83.48h1.6l7.209,11c.789,1.183,1.556,2.585,1.556,2.585h.044V83.48h1.4V99.147H202.75l-7.187-10.868c-.723-1.1-1.643-2.652-1.643-2.652h-.044V99.147h-1.4Z" transform="translate(-75.796 -32.874)"/><path class="a" d="M220.922,91.111c0-4.733,2.695-8.173,7.121-8.173,3.309,0,5.5,1.84,6.026,4.755h-1.446a4.339,4.339,0,0,0-4.6-3.484c-3.681,0-5.566,3.046-5.566,6.9,0,3.922,1.95,6.814,5.544,6.814,3.024,0,4.667-2.1,4.908-4.689h1.425a6.783,6.783,0,0,1-1.622,4.1,6.134,6.134,0,0,1-4.733,1.884c-4.361,0-7.056-3.308-7.056-8.107" transform="translate(-86.999 -32.661)"/><path class="a" d="M251.756,83.48H262.4v1.293h-9.18V90.4h8.414v1.271h-8.414v6.114h9.422v1.358h-10.89Z" transform="translate(-99.142 -32.874)"/><path class="a" d="M276.88,93.864h1.468c.153,2.652,1.95,4.142,4.885,4.142,2.3,0,4.01-1.161,4.01-3.287,0-2.213-1.468-2.739-4.82-3.418-2.893-.569-4.93-1.446-4.93-4.185,0-2.5,2.1-4.141,5.236-4.141,3.484,0,5.237,1.885,5.522,4.579h-1.425c-.262-2.213-1.84-3.352-4.075-3.352-2.388,0-3.835,1.139-3.835,2.87,0,1.863,1.446,2.432,4.251,2.958,3.046.592,5.565,1.337,5.565,4.623,0,2.783-2.235,4.579-5.522,4.579-4.119,0-6.157-2.322-6.332-5.368" transform="translate(-109.036 -32.675)"/><path class="a" d="M163.366,16.584a1.7,1.7,0,0,1-2.32-1.088,1.679,1.679,0,0,1,1.137-2.365l1.62-.589a3.779,3.779,0,0,1-1.628-1.9,14.126,14.126,0,0,0-3.444-5.014,21.6,21.6,0,0,0-21.837-4.353l.132.361-.132-.361a21.607,21.607,0,0,0-13.93,17.371,14.134,14.134,0,0,0,.585,6.055,3.773,3.773,0,0,1-.025,2.5l1.62-.59a1.679,1.679,0,0,1,2.391,1.081,1.7,1.7,0,0,1-1.078,2.324l-1.685.613c1.044.479,1.623.928,1.887,1.771a11.38,11.38,0,0,0,3.061,5.031A21.608,21.608,0,0,0,151.681,41.9l-.1-.271.1.271a21.608,21.608,0,0,0,13.953-17.537,11.39,11.39,0,0,0-.889-5.823,2.918,2.918,0,0,1,.307-2.569ZM152.413,29.958l-3.74,4.089-5.494-.729s-1.3-7.551-2.616-9.638a3.08,3.08,0,0,0-1.125-1.215,6.746,6.746,0,0,1-3.934-4.4,6.741,6.741,0,0,1,3.936-8.886,6.932,6.932,0,0,1,9.095,4.143,7.731,7.731,0,0,1-.237,5.924,2.911,2.911,0,0,0-.076,1.644c.432,2.476,4.191,9.064,4.191,9.064" transform="translate(-48.38 0)"/></g></svg>