<svg xmlns="http://www.w3.org/2000/svg" xmlns:xlink="http://www.w3.org/1999/xlink" width="32.042" height="34.795" viewBox="0 0 32.042 34.795"><defs><style>.a{fill:#fff;}.b{clip-path:url(#a);}</style><clipPath id="a"><rect class="a" width="32.042" height="34.795"/></clipPath></defs><rect class="a" width="2.41" height="8.662" transform="translate(14.816 25.753)"/><g class="b"><path class="a" d="M31.662,26.136H.38a.38.38,0,0,1-.38-.38V.38A.38.38,0,0,1,.38,0H31.662a.38.38,0,0,1,.38.38V25.756a.38.38,0,0,1-.38.38m-30.9-.759H31.283V.759H.759Z"/><path class="a" d="M91.914,22.963a.38.38,0,0,1-.38-.38V.45a.38.38,0,0,1,.759,0V22.583a.38.38,0,0,1-.38.38" transform="translate(-77.635 -0.059)"/><path class="a" d="M31.815,146.6H.571a.38.38,0,0,1,0-.759H31.815a.38.38,0,0,1,0,.759" transform="translate(-0.162 -123.694)"/><path class="a" d="M14.439,75.22H.57a.38.38,0,0,1,0-.759h13.87a.38.38,0,0,1,0,.759" transform="translate(-0.161 -63.155)"/><path class="a" d="M79.194,224.916H68.613a.38.38,0,0,1,0-.759H79.194a.38.38,0,1,1,0,.759" transform="translate(-57.873 -190.121)"/><path class="a" d="M103.647,155.525a.423.423,0,1,0-.423.423.423.423,0,0,0,.423-.423" transform="translate(-87.192 -131.551)"/><path class="a" d="M132.748,36.884a3.023,3.023,0,1,1,3.023-3.023,3.027,3.027,0,0,1-3.023,3.023m0-5.287a2.264,2.264,0,1,0,2.264,2.264,2.267,2.267,0,0,0-2.264-2.264" transform="translate(-110.028 -26.156)"/><path class="a" d="M120.44,115.828H108.69a.38.38,0,1,1,0-.759h11.75a.38.38,0,0,1,0,.759" transform="translate(-91.864 -97.597)"/><path class="a" d="M124.8,79.427H114.9a.38.38,0,0,1-.38-.38V77.174a2.2,2.2,0,0,1,2.2-2.2h6.25a2.2,2.2,0,0,1,2.2,2.2v1.874a.38.38,0,0,1-.38.38m-9.515-.759h9.135V77.174a1.444,1.444,0,0,0-1.442-1.442h-6.25a1.444,1.444,0,0,0-1.442,1.442Z" transform="translate(-97.134 -63.588)"/><path class="a" d="M35.516,22.5A2.585,2.585,0,1,1,38.1,19.912,2.588,2.588,0,0,1,35.516,22.5m0-4.412a1.826,1.826,0,1,0,1.826,1.826,1.828,1.828,0,0,0-1.826-1.826" transform="translate(-27.931 -14.696)"/><path class="a" d="M28.882,57.995H20.627a.38.38,0,0,1-.38-.38V56.354a2.2,2.2,0,0,1,2.2-2.2H27.06a2.2,2.2,0,0,1,2.2,2.2v1.262a.38.38,0,0,1-.38.38m-7.876-.759h7.5v-.882a1.444,1.444,0,0,0-1.442-1.442H22.449a1.444,1.444,0,0,0-1.442,1.442Z" transform="translate(-17.173 -45.929)"/><path class="a" d="M35.516,93.8A2.585,2.585,0,1,1,38.1,91.217,2.588,2.588,0,0,1,35.516,93.8m0-4.412a1.826,1.826,0,1,0,1.826,1.826,1.828,1.828,0,0,0-1.826-1.826" transform="translate(-27.931 -75.174)"/><path class="a" d="M28.882,129.3H20.627a.38.38,0,0,1-.38-.38v-1.262a2.2,2.2,0,0,1,2.2-2.2H27.06a2.2,2.2,0,0,1,2.2,2.2v1.262a.38.38,0,0,1-.38.38m-7.876-.759h7.5v-.882a1.444,1.444,0,0,0-1.442-1.443H22.449a1.444,1.444,0,0,0-1.442,1.443Z" transform="translate(-17.173 -106.407)"/></g></svg>