<svg xmlns="http://www.w3.org/2000/svg" xmlns:xlink="http://www.w3.org/1999/xlink" width="192.86" height="124.689" viewBox="0 0 192.86 124.689"><defs><style>.a{fill:#fff;}.b{clip-path:url(#a);}</style><clipPath id="a"><rect class="a" width="192.86" height="124.689"/></clipPath></defs><g class="b"><path class="a" d="M63.047,162.468H1.1a1.1,1.1,0,0,1-1.1-1.1V68.444a1.1,1.1,0,0,1,1.1-1.1h61.95a1.1,1.1,0,0,1,1.1,1.1V161.37a1.1,1.1,0,0,1-1.1,1.1M2.2,160.272H61.95V69.541H2.2Z" transform="translate(0 -37.779)"/><path class="a" d="M63.047,89.654H1.1a1.1,1.1,0,0,1-1.1-1.1V68.444a1.1,1.1,0,0,1,1.1-1.1h61.95a1.1,1.1,0,0,1,1.1,1.1V88.556a1.1,1.1,0,0,1-1.1,1.1M2.2,87.459H61.95V69.541H2.2Z" transform="translate(0 -37.779)"/><path class="a" d="M21.6,89.654H1.1a1.1,1.1,0,0,1-1.1-1.1V68.444a1.1,1.1,0,0,1,1.1-1.1H21.6a1.1,1.1,0,0,1,1.1,1.1V88.556a1.1,1.1,0,0,1-1.1,1.1M2.2,87.459H20.507V69.541H2.2Z" transform="translate(0 -37.779)"/><path class="a" d="M68.571,89.654H47.808a1.1,1.1,0,0,1-1.1-1.1V68.444a1.1,1.1,0,0,1,1.1-1.1H68.571a1.1,1.1,0,0,1,1.1,1.1V88.556a1.1,1.1,0,0,1-1.1,1.1m-19.666-2.2H67.474V69.541H48.905Z" transform="translate(-26.203 -37.779)"/><path class="a" d="M115.78,89.655H95.1a1.1,1.1,0,0,1-1.1-1.1V68.444a1.1,1.1,0,0,1,1.1-1.1H115.78a1.1,1.1,0,0,1,1.1,1.1V88.558a1.1,1.1,0,0,1-1.1,1.1M96.2,87.46h18.483V69.541H96.2Z" transform="translate(-52.733 -37.779)"/><path class="a" d="M30.97,144.241a1.1,1.1,0,0,1-1.1-1.1v-9.754a1.1,1.1,0,0,1,2.2,0v9.754a1.1,1.1,0,0,1-1.1,1.1" transform="translate(-16.757 -74.211)"/><path class="a" d="M57.631,144.241a1.1,1.1,0,0,1-1.1-1.1v-9.754a1.1,1.1,0,0,1,2.2,0v9.754a1.1,1.1,0,0,1-1.1,1.1" transform="translate(-31.713 -74.211)"/><path class="a" d="M84.28,144.241a1.1,1.1,0,0,1-1.1-1.1v-9.754a1.1,1.1,0,0,1,2.2,0v9.754a1.1,1.1,0,0,1-1.1,1.1" transform="translate(-46.662 -74.211)"/><path class="a" d="M110.947,144.241a1.1,1.1,0,0,1-1.1-1.1v-9.754a1.1,1.1,0,0,1,2.2,0v9.754a1.1,1.1,0,0,1-1.1,1.1" transform="translate(-61.621 -74.211)"/><path class="a" d="M214.617,221.834H181.238a1.1,1.1,0,0,1-1.1-1.1V195.019c-.445-17.993,17.387-21.787,17.567-21.823a1.089,1.089,0,0,1,.433,0c.18.036,18.006,3.828,17.569,21.836l.005,25.7a1.1,1.1,0,0,1-1.1,1.1m-32.282-2.2h31.184l0-24.619c0-.009,0-.018,0-.027.375-15.177-13.689-19.13-15.6-19.595-2.02.471-15.962,4.283-15.584,19.595Z" transform="translate(-101.048 -97.145)"/><path class="a" d="M356.223,162.468H294.272a1.1,1.1,0,0,1-1.1-1.1V68.444a1.1,1.1,0,0,1,1.1-1.1h61.952a1.1,1.1,0,0,1,1.1,1.1V161.37a1.1,1.1,0,0,1-1.1,1.1m-60.854-2.2h59.757V69.541H295.369Z" transform="translate(-164.46 -37.779)"/><path class="a" d="M356.223,89.654H294.272a1.1,1.1,0,0,1-1.1-1.1V68.444a1.1,1.1,0,0,1,1.1-1.1h61.952a1.1,1.1,0,0,1,1.1,1.1V88.556a1.1,1.1,0,0,1-1.1,1.1m-60.854-2.2h59.757V69.541H295.369Z" transform="translate(-164.46 -37.779)"/><path class="a" d="M409.182,89.654h-20.5a1.1,1.1,0,0,1-1.1-1.1V68.444a1.1,1.1,0,0,1,1.1-1.1h20.5a1.1,1.1,0,0,1,1.1,1.1V88.556a1.1,1.1,0,0,1-1.1,1.1m-19.407-2.2h18.309V69.541H389.775Z" transform="translate(-217.419 -37.779)"/><path class="a" d="M362.14,89.654H341.371a1.1,1.1,0,0,1-1.1-1.1V68.444a1.1,1.1,0,0,1,1.1-1.1H362.14a1.1,1.1,0,0,1,1.1,1.1V88.556a1.1,1.1,0,0,1-1.1,1.1m-19.672-2.2h18.574V69.541H342.468Z" transform="translate(-190.881 -37.779)"/><path class="a" d="M314.95,89.654H294.272a1.1,1.1,0,0,1-1.1-1.1V68.444a1.1,1.1,0,0,1,1.1-1.1H314.95a1.1,1.1,0,0,1,1.1,1.1V88.556a1.1,1.1,0,0,1-1.1,1.1m-19.58-2.2h18.483V69.541H295.369Z" transform="translate(-164.46 -37.779)"/><path class="a" d="M405.508,144.293a1.1,1.1,0,0,1-1.1-1.1V133.39a1.1,1.1,0,0,1,2.2,0V143.2a1.1,1.1,0,0,1-1.1,1.1" transform="translate(-226.86 -74.211)"/><path class="a" d="M378.861,144.293a1.1,1.1,0,0,1-1.1-1.1V133.39a1.1,1.1,0,1,1,2.2,0V143.2a1.1,1.1,0,0,1-1.1,1.1" transform="translate(-211.912 -74.211)"/><path class="a" d="M352.2,144.293a1.1,1.1,0,0,1-1.1-1.1V133.39a1.1,1.1,0,1,1,2.2,0V143.2a1.1,1.1,0,0,1-1.1,1.1" transform="translate(-196.956 -74.211)"/><path class="a" d="M325.545,144.293a1.1,1.1,0,0,1-1.1-1.1V133.39a1.1,1.1,0,0,1,2.2,0V143.2a1.1,1.1,0,0,1-1.1,1.1" transform="translate(-182.004 -74.211)"/><path class="a" d="M206.542,13.926H121.36a1.1,1.1,0,0,1-.99-1.573L126,.623a1.1,1.1,0,0,1,.99-.623H200.91a1.1,1.1,0,0,1,.99.623l5.632,11.731a1.1,1.1,0,0,1-.99,1.573m-83.438-2.2H204.8L200.219,2.2H127.682Z" transform="translate(-67.463)"/><path class="a" d="M194.763,52.033H176.285a1.1,1.1,0,0,1-1.1-1.1V27.818a1.1,1.1,0,0,1,1.1-1.1h18.479a1.1,1.1,0,0,1,1.1,1.1V50.935a1.1,1.1,0,0,1-1.1,1.1m-17.381-2.2h16.284V28.915H177.382Z" transform="translate(-98.274 -14.989)"/><path class="a" d="M152.669,52.033H137.705a1.1,1.1,0,0,1-1.1-1.1V46.751h-2.421a1.1,1.1,0,0,1-1.1-1.1V27.818a1.1,1.1,0,0,1,1.1-1.1h18.482a1.1,1.1,0,0,1,1.1,1.1V50.935a1.1,1.1,0,0,1-1.1,1.1m-13.866-2.2h12.768V28.915H135.284V44.556h2.421a1.1,1.1,0,0,1,1.1,1.1Z" transform="translate(-74.658 -14.989)"/><path class="a" d="M236.853,52.033H218.374a1.1,1.1,0,0,1-1.1-1.1V27.818a1.1,1.1,0,0,1,1.1-1.1h18.479a1.1,1.1,0,0,1,1.1,1.1V50.935a1.1,1.1,0,0,1-1.1,1.1m-17.382-2.2h16.284V28.915H219.471Z" transform="translate(-121.884 -14.989)"/><path class="a" d="M204.469,52.033H137.705a1.1,1.1,0,0,1-1.1-1.1V46.751h-2.421a1.1,1.1,0,0,1-1.1-1.1V27.818a1.1,1.1,0,0,1,1.1-1.1h73.919a1.1,1.1,0,0,1,1.1,1.1V45.654a1.1,1.1,0,0,1-1.1,1.1h-2.539v4.184a1.1,1.1,0,0,1-1.1,1.1m-65.666-2.2h64.568V45.654a1.1,1.1,0,0,1,1.1-1.1h2.539V28.915H135.284V44.556h2.421a1.1,1.1,0,0,1,1.1,1.1Z" transform="translate(-74.658 -14.989)"/><path class="a" d="M275.307,52.033H260.465a1.1,1.1,0,0,1-1.1-1.1V27.818a1.1,1.1,0,0,1,1.1-1.1h18.479a1.1,1.1,0,0,1,1.1,1.1V45.654a1.1,1.1,0,0,1-1.1,1.1H276.4v4.184a1.1,1.1,0,0,1-1.1,1.1m-13.745-2.2h12.647V45.654a1.1,1.1,0,0,1,1.1-1.1h2.539V28.915H261.562Z" transform="translate(-145.496 -14.989)"/><path class="a" d="M176.284,144.682a1.1,1.1,0,0,1-1.1-1.1v-10.2a1.1,1.1,0,1,1,2.2,0v10.2a1.1,1.1,0,0,1-1.1,1.1" transform="translate(-98.273 -74.211)"/><path class="a" d="M202.952,144.682a1.1,1.1,0,0,1-1.1-1.1v-10.2a1.1,1.1,0,0,1,2.2,0v10.2a1.1,1.1,0,0,1-1.1,1.1" transform="translate(-113.233 -74.211)"/><path class="a" d="M229.586,144.682a1.1,1.1,0,0,1-1.1-1.1v-10.2a1.1,1.1,0,0,1,2.2,0v10.2a1.1,1.1,0,0,1-1.1,1.1" transform="translate(-128.174 -74.211)"/><path class="a" d="M256.254,144.682a1.1,1.1,0,0,1-1.1-1.1v-10.2a1.1,1.1,0,1,1,2.2,0v10.2a1.1,1.1,0,0,1-1.1,1.1" transform="translate(-143.134 -74.211)"/><path class="a" d="M208.966,96.4H142.2a1.1,1.1,0,0,1-1.1-1.1V80.473a1.1,1.1,0,0,1,1.1-1.1h66.764a1.1,1.1,0,0,1,1.1,1.1V95.3a1.1,1.1,0,0,1-1.1,1.1m-65.666-2.2h64.569V81.57H143.3Z" transform="translate(-79.154 -44.527)"/><path class="a" d="M204.466,139.678H137.705a1.1,1.1,0,0,1-1.1-1.1V46.751h-2.421a1.1,1.1,0,0,1-1.1-1.1V27.818a1.1,1.1,0,0,1,1.1-1.1h73.919a1.1,1.1,0,0,1,1.1,1.1V45.654a1.1,1.1,0,0,1-1.1,1.1h-2.539l0,91.829a1.1,1.1,0,0,1-1.1,1.1m-65.663-2.2h64.566l0-91.829a1.1,1.1,0,0,1,1.1-1.1h2.539V28.915H135.284V44.556h2.421a1.1,1.1,0,0,1,1.1,1.1Z" transform="translate(-74.658 -14.989)"/></g></svg>