<svg xmlns="http://www.w3.org/2000/svg" width="173.75" height="203.312" viewBox="0 0 173.75 203.312"><defs><style>.a{fill:#4c184c;}.b{fill:#e1a92d;}</style></defs><g transform="translate(-2517.501 -221.972)"><g transform="translate(2591.95 338.304)"><path class="a" d="M2771.616,593.817a.916.916,0,0,1-1.253-.587.906.906,0,0,1,.614-1.277l.875-.319a2.038,2.038,0,0,1-.879-1.027,7.639,7.639,0,0,0-1.859-2.708,11.668,11.668,0,0,0-11.792-2.35l.071.195-.071-.195a11.666,11.666,0,0,0-7.522,9.38,7.626,7.626,0,0,0,.316,3.269,2.042,2.042,0,0,1-.014,1.352l.875-.319a.985.985,0,1,1,.709,1.839l-.91.331c.564.258.876.5,1.019.956a6.142,6.142,0,0,0,1.654,2.717,11.667,11.667,0,0,0,11.858,2.411l-.053-.146.053.146a11.667,11.667,0,0,0,7.534-9.47,6.143,6.143,0,0,0-.479-3.144,1.576,1.576,0,0,1,.165-1.387Zm-5.915,7.222-2.02,2.208-2.967-.394s-.7-4.078-1.412-5.2a1.66,1.66,0,0,0-.608-.655,3.936,3.936,0,0,1,0-7.174,3.743,3.743,0,0,1,4.911,2.238,4.172,4.172,0,0,1-.128,3.2,1.578,1.578,0,0,0-.041.888,26.892,26.892,0,0,0,2.264,4.895" transform="translate(-2749.739 -584.862)"/></g><g transform="translate(2517.501 221.972)"><path class="b" d="M2691.251,326.678v-.054h-.482c-12.791-1.448-21.6-27.574-21.687-27.838l-.118-.357H2605.3l.626-.475-7.629-10.046a28.2,28.2,0,0,0,7.708-1.88c4.823-1.872,9.221-5.268,13.844-10.69l8.019-9.406,6.087,5.174.677-.8-11.294-9.6a13.045,13.045,0,0,0-14.619-1.2c-7.344,3.808-26.6-1.2-29.522-1.994l-.5-31.145a4.451,4.451,0,0,0-3.921-4.332l-.593-.07.4,29.362a87.444,87.444,0,0,1-.445,11c-.729,6.553,2.082,14.3,7.582,19.565l12.925,16.533h-57.135l-.076.43c-3.227,18.321-18.145,26.987-19.548,27.764h-.387v98.66h173.75V326.679Zm-159-12.288a40.839,40.839,0,0,0,2.8-4.852h38.038V308.5H2535.54c.293-.648.569-1.317.834-2H2671.04c.449.992.947,2.042,1.49,3.123h-15.876v1.041h16.409c.64,1.227,1.337,2.482,2.089,3.728Zm76.958-53.949c7.76-4.021,13.2.831,13.444,1.052l4.426,3.761-8.018,9.4a51.071,51.071,0,0,1-4.417,4.613c-.772.131-4.451.653-6.568-.875a3.561,3.561,0,0,1-1.468-2.609,29.207,29.207,0,0,1-.107-3.922c.066-3.785.133-7.681-3.987-9.938A16.812,16.812,0,0,0,2609.206,260.442Zm-9.355,1.527c5.741,1.723,5.677,5.506,5.6,9.881-.013.757-.026,1.528-.006,2.3-1.937.647-11.541,3.5-18.541-.887-4.294-2.693-6.857-7.613-7.623-14.633C2582.035,259.37,2591.672,261.815,2599.851,261.968Zm-17.34,19.239-.005,0c-5.309-5.034-8.026-12.473-7.326-18.765a88.624,88.624,0,0,0,.451-11.128l-.384-28.115a3.4,3.4,0,0,1,2.4,3.186l.518,31.925.03.008c.744,7.577,3.487,12.9,8.154,15.825,7.183,4.5,16.569,1.928,19.146,1.085.018.228.039.455.067.681a4.614,4.614,0,0,0,1.895,3.332,9.26,9.26,0,0,0,5.785,1.237,27.534,27.534,0,0,1-7.615,4.569c-4.961,1.926-9.57,2.387-13.7,1.372a20.93,20.93,0,0,1-9.393-5.18Zm2.686,3.435a21.447,21.447,0,0,0,6.486,2.8,19.655,19.655,0,0,0,5.363.544l7.932,10.446h-10.058l.656-.513Zm-47.585,18.151h9.428v-1.041h-9.161c.186-.745.359-1.5.505-2.281h129.832c.124.358.333.949.623,1.719h-25.864v1.041h26.264c.364.929.812,2.022,1.338,3.226H2536.765C2537.072,304.595,2537.357,303.709,2537.612,302.793Zm-12.682,19.956v.467h9.556v-1.041h-8.924a45.341,45.341,0,0,0,3.3-3.387v.306h17.8v-1.041h-17.172c.687-.818,1.367-1.693,2.032-2.621h143.853v-.666c.645,1.051,1.327,2.092,2.047,3.1h-7.094v1.042h7.86a36.21,36.21,0,0,0,2.6,3.081h-27.138v1.041h27.919v-.251a19.36,19.36,0,0,0,5.421,3.846H2519.887A42.836,42.836,0,0,0,2524.93,322.749Zm-6.387,23.95V327.666h171.667V346.7h-69.448v1.041h69.449V416.7H2518.542V347.741h67.677V346.7Zm0,77.544v-5.977H2690.21v5.977Z" transform="translate(-2517.501 -221.972)"/><path class="b" d="M2754.489,604.986a14.761,14.761,0,1,0-14.76-14.761A14.778,14.778,0,0,0,2754.489,604.986Zm0-28.481a13.72,13.72,0,1,1-13.719,13.72A13.736,13.736,0,0,1,2754.489,576.505Z" transform="translate(-2668.488 -462.144)"/></g><g transform="translate(2535.924 395.465)"><g transform="translate(0 0.586)"><path class="a" d="M2574.97,765.5h1.629l1.01,4.131q.092.4.178.884t.143.907c.047.329.088.662.126,1h.023q.08-.516.172-1.033.08-.436.167-.924t.178-.878l1.044-4.085h1.561l1.032,4.073q.092.39.178.884t.155.929l.161,1.033h.023q.069-.5.149-1.01.069-.436.155-.912t.189-.878l1.01-4.119h1.629l-2.364,8.537h-1.549l-1.091-4.464q-.092-.333-.172-.775t-.138-.844q-.069-.459-.137-.941h-.023q-.069.482-.138.941-.057.4-.138.844t-.161.775l-1.147,4.464h-1.583Z" transform="translate(-2574.97 -765.339)"/><path class="a" d="M2610.5,765.5h1.7l3.11,8.537h-1.7l-.677-2.031h-3.236l-.688,2.031H2607.4Zm-.413,5.336h2.456l-.654-1.974q-.126-.378-.224-.74t-.166-.66q-.081-.344-.149-.654h-.023q-.092.356-.184.723-.081.31-.178.672t-.2.659Z" transform="translate(-2597.003 -765.339)"/><path class="a" d="M2634.46,765.5h1.629l2.834,4.475q.172.287.356.631t.344.642l.367.711h.034q-.023-.39-.046-.769-.023-.333-.034-.712t-.011-.7V765.5h1.5v8.537h-1.629l-2.823-4.452q-.184-.287-.367-.637c-.122-.233-.237-.45-.344-.649l-.367-.711h-.023q.012.39.035.768.023.333.034.712t.011.7v4.269h-1.5Z" transform="translate(-2615.389 -765.339)"/><path class="a" d="M2660.59,765.5h3.362a4.116,4.116,0,0,1,1.647.31,3.384,3.384,0,0,1,1.216.878,3.834,3.834,0,0,1,.757,1.36,5.676,5.676,0,0,1,.258,1.767,5.485,5.485,0,0,1-.258,1.733,3.669,3.669,0,0,1-.757,1.331,3.369,3.369,0,0,1-1.245.855,4.511,4.511,0,0,1-1.71.3h-3.27Zm3.167,7.183a2.2,2.2,0,0,0,1.853-.763,3.359,3.359,0,0,0,.591-2.105,4.944,4.944,0,0,0-.138-1.21,2.6,2.6,0,0,0-.43-.935,1.946,1.946,0,0,0-.746-.6,2.536,2.536,0,0,0-1.084-.212h-1.618v5.829Z" transform="translate(-2633.143 -765.339)"/><path class="a" d="M2686.434,765.5h6.242v1.354h-4.659v2.111h4.12v1.274h-4.12v2.41h4.762v1.388h-6.345Z" transform="translate(-2650.702 -765.339)"/><path class="a" d="M2709.7,765.5h4.028a3.5,3.5,0,0,1,1.1.166,2.528,2.528,0,0,1,.866.476,2.21,2.21,0,0,1,.568.752,2.344,2.344,0,0,1,.207,1,2.272,2.272,0,0,1-.367,1.309,2.191,2.191,0,0,1-1.206.8v.034a1.741,1.741,0,0,1,.969.631,2.519,2.519,0,0,1,.362,1.217q.1.941.155,1.457t.224.608v.081H2715q-.161-.1-.2-.6t-.108-1.354a1.373,1.373,0,0,0-1.584-1.446h-1.824v3.4H2709.7Zm1.583,3.924h2.065a1.646,1.646,0,0,0,1.142-.35,1.217,1.217,0,0,0,.384-.947,1.324,1.324,0,0,0-.35-.987,1.55,1.55,0,0,0-1.119-.344h-2.123Z" transform="translate(-2666.51 -765.339)"/><path class="a" d="M2742.811,765.5h1.595v8.537h-1.595Z" transform="translate(-2689.006 -765.339)"/><path class="a" d="M2752.188,765.5h1.629l2.834,4.475q.172.287.355.631c.123.229.237.444.345.642l.367.711h.035c-.016-.26-.031-.516-.047-.769q-.023-.333-.034-.712t-.011-.7V765.5h1.5v8.537h-1.629l-2.823-4.452q-.184-.287-.367-.637T2754,768.3l-.367-.711h-.022c.007.26.019.516.034.768q.023.333.035.712c.007.252.011.486.011.7v4.269h-1.5Z" transform="translate(-2695.377 -765.339)"/><path class="a" d="M2776.814,765.5h6.931v1.365h-2.674v7.172h-1.595v-7.172h-2.663Z" transform="translate(-2712.108 -765.339)"/><path class="a" d="M2803.17,773.891a4.4,4.4,0,0,1-1.744-.333,3.762,3.762,0,0,1-1.325-.929,4.125,4.125,0,0,1-.838-1.411,5.51,5.51,0,0,1,0-3.545,4.07,4.07,0,0,1,.838-1.406,3.868,3.868,0,0,1,1.325-.929,4.66,4.66,0,0,1,3.489,0,3.871,3.871,0,0,1,1.325.929,4.078,4.078,0,0,1,.838,1.406,5.51,5.51,0,0,1,0,3.545,4.134,4.134,0,0,1-.838,1.411,3.765,3.765,0,0,1-1.325.929A4.4,4.4,0,0,1,2803.17,773.891Zm.012-1.342a2.507,2.507,0,0,0,1.113-.236,2.254,2.254,0,0,0,.8-.648,2.838,2.838,0,0,0,.482-.981,4.511,4.511,0,0,0,.161-1.233,4.58,4.58,0,0,0-.161-1.239,2.965,2.965,0,0,0-.482-1,2.261,2.261,0,0,0-.8-.666,2.716,2.716,0,0,0-2.237,0,2.315,2.315,0,0,0-.81.666,2.974,2.974,0,0,0-.493,1,4.42,4.42,0,0,0-.167,1.239,4.354,4.354,0,0,0,.167,1.233,2.846,2.846,0,0,0,.493.981,2.308,2.308,0,0,0,.81.648A2.531,2.531,0,0,0,2803.182,772.549Z" transform="translate(-2727.162 -764.998)"/><path class="a" d="M2834.837,765.5h1.629l1.01,4.131q.092.4.178.884t.144.907q.069.493.126,1h.023c.053-.344.111-.688.172-1.033q.081-.436.167-.924t.177-.878l1.044-4.085h1.561l1.033,4.073q.092.39.178.884t.155.929q.081.517.161,1.033h.023q.069-.5.149-1.01.07-.436.155-.912t.189-.878l1.009-4.119h1.63l-2.364,8.537h-1.549l-1.09-4.464q-.092-.333-.172-.775t-.137-.844q-.069-.459-.138-.941h-.023q-.069.482-.138.941-.058.4-.138.844t-.161.775l-1.148,4.464h-1.583Z" transform="translate(-2751.531 -765.339)"/><path class="a" d="M2905.064,765.5h1.629l2.834,4.475q.173.287.356.631t.344.642l.367.711h.034q-.023-.39-.046-.769-.023-.333-.034-.712t-.011-.7V765.5h1.5v8.537h-1.629l-2.823-4.452q-.183-.287-.367-.637t-.344-.649l-.367-.711h-.023c.007.26.019.516.034.768q.022.333.034.712t.011.7v4.269h-1.5Z" transform="translate(-2799.245 -765.339)"/><path class="a" d="M2931.193,765.5h3.362a4.115,4.115,0,0,1,1.646.31,3.378,3.378,0,0,1,1.216.878,3.843,3.843,0,0,1,.758,1.36,5.69,5.69,0,0,1,.258,1.767,5.5,5.5,0,0,1-.258,1.733,3.678,3.678,0,0,1-.758,1.331,3.368,3.368,0,0,1-1.245.855,4.511,4.511,0,0,1-1.709.3h-3.271Zm3.167,7.183a2.2,2.2,0,0,0,1.853-.763,3.359,3.359,0,0,0,.591-2.105,4.932,4.932,0,0,0-.137-1.21,2.6,2.6,0,0,0-.43-.935,1.95,1.95,0,0,0-.746-.6,2.537,2.537,0,0,0-1.084-.212h-1.618v5.829Z" transform="translate(-2816.998 -765.339)"/><path class="a" d="M2957.037,765.5h6.242v1.354h-4.658v2.111h4.119v1.274h-4.119v2.41h4.761v1.388h-6.345Z" transform="translate(-2834.557 -765.339)"/><path class="a" d="M2980.3,765.5h4.028a3.506,3.506,0,0,1,1.1.166,2.527,2.527,0,0,1,.866.476,2.21,2.21,0,0,1,.568.752,2.344,2.344,0,0,1,.207,1,2.274,2.274,0,0,1-.367,1.309,2.186,2.186,0,0,1-1.2.8v.034a1.744,1.744,0,0,1,.969.631,2.54,2.54,0,0,1,.362,1.217q.1.941.155,1.457t.224.608v.081h-1.606q-.161-.1-.2-.6t-.109-1.354a1.372,1.372,0,0,0-1.583-1.446h-1.825v3.4H2980.3Zm1.583,3.924h2.066a1.642,1.642,0,0,0,1.141-.35,1.216,1.216,0,0,0,.385-.947,1.323,1.323,0,0,0-.35-.987,1.549,1.549,0,0,0-1.119-.344h-2.123Z" transform="translate(-2850.366 -765.339)"/></g><g transform="translate(94.908)"><path class="b" d="M2880.226,766.936a.385.385,0,0,1-.527-.247.381.381,0,0,1,.258-.537l.368-.134a.857.857,0,0,1-.37-.432,3.2,3.2,0,0,0-.782-1.138,4.906,4.906,0,0,0-4.958-.988l.03.082-.03-.082a4.906,4.906,0,0,0-3.162,3.944,3.2,3.2,0,0,0,.133,1.375.855.855,0,0,1-.005.568l.367-.134a.414.414,0,1,1,.3.773l-.383.139c.237.109.368.211.428.4a2.583,2.583,0,0,0,.7,1.142,4.906,4.906,0,0,0,4.986,1.014l-.022-.062.022.062a4.905,4.905,0,0,0,3.168-3.981,2.584,2.584,0,0,0-.2-1.322.665.665,0,0,1,.07-.583Zm-2.487,3.036-.85.928-1.247-.165a10.1,10.1,0,0,0-.594-2.188.7.7,0,0,0-.255-.276,1.655,1.655,0,0,1,0-3.016,1.574,1.574,0,0,1,2.065.941,1.756,1.756,0,0,1-.054,1.345.663.663,0,0,0-.017.373A11.287,11.287,0,0,0,2877.739,769.973Z" transform="translate(-2871.027 -763.171)"/></g></g></g></svg>