<svg xmlns="http://www.w3.org/2000/svg" xmlns:xlink="http://www.w3.org/1999/xlink" width="95.516" height="125.128" viewBox="0 0 95.516 125.128"><defs><style>.a{fill:#fff;}.b{clip-path:url(#a);}</style><clipPath id="a"><rect class="a" width="95.516" height="125.128"/></clipPath></defs><g class="b"><path class="a" d="M95.084,123.676H66.693a1.131,1.131,0,0,1-1.132-1.132,13.763,13.763,0,0,0-27.525,0,1.131,1.131,0,0,1-1.132,1.132H8.514a1.131,1.131,0,0,1-1.132-1.132V92.691a1.131,1.131,0,0,1,1.132-1.132H95.084a1.132,1.132,0,0,1,1.132,1.132v29.854a1.132,1.132,0,0,1-1.132,1.132m-27.26-1.132h0Zm-.039-1.132H93.953V93.822H9.645v27.591H35.812a16.027,16.027,0,0,1,31.973,0" transform="translate(-4.041 -50.117)"/><path class="a" d="M96.831,26.495H26.96a1.131,1.131,0,0,1-1.132-1.132V13.246a1.132,1.132,0,0,1,1.132-1.132h8.47V5.923a1.15,1.15,0,0,1,1.108-1.152c3.129-.063,13.655-.427,17.728-2.446a11.809,11.809,0,0,0,1.12-.663l.274-.175.045-.027.013-.007A11.873,11.873,0,0,1,61.9,0a12.016,12.016,0,0,1,6.187,1.459l.339.215a11.719,11.719,0,0,0,1.1.65c4.075,2.02,14.6,2.384,17.73,2.447A1.132,1.132,0,0,1,88.362,5.9v6.212h8.47a1.132,1.132,0,0,1,1.132,1.132V25.363a1.131,1.131,0,0,1-1.132,1.132m-68.74-2.263H95.7V14.377H87.23A1.131,1.131,0,0,1,86.1,13.246V7.006c-4.643-.137-13.558-.66-17.579-2.654A13.466,13.466,0,0,1,67.2,3.578l-.3-.187-.039-.025a9.871,9.871,0,0,0-4.969-1.1,9.892,9.892,0,0,0-4.974,1.1c-.019.013-.038.024-.057.035l-.259.164a13.683,13.683,0,0,1-1.338.787C51.25,6.345,42.335,6.869,37.693,7.006v6.24a1.131,1.131,0,0,1-1.132,1.132h-8.47Z" transform="translate(-14.137 0.001)"/><path class="a" d="M41.2,125.871a5.07,5.07,0,1,1,5.069-5.071,5.078,5.078,0,0,1-5.069,5.071m0-7.878A2.807,2.807,0,1,0,44,120.8a2.812,2.812,0,0,0-2.805-2.806" transform="translate(-19.774 -63.347)"/><path class="a" d="M155.374,125.871a5.07,5.07,0,1,1,5.069-5.071,5.077,5.077,0,0,1-5.069,5.071m0-7.878a2.807,2.807,0,1,0,2.805,2.806,2.811,2.811,0,0,0-2.805-2.806" transform="translate(-82.271 -63.347)"/><path class="a" d="M93.08,63.822H10.52a3.139,3.139,0,0,1-3.138-3.134V56.673a3.141,3.141,0,0,1,3.138-3.137H93.08a3.14,3.14,0,0,1,3.135,3.137v4.015a3.138,3.138,0,0,1-3.135,3.134M10.52,55.8a.875.875,0,0,0-.874.874v4.015a.873.873,0,0,0,.874.87H93.08a.872.872,0,0,0,.872-.87V56.673a.874.874,0,0,0-.872-.874Z" transform="translate(-4.041 -29.304)"/><path class="a" d="M92.382,82.712H3.139A3.141,3.141,0,0,1,0,79.576V74.4a3.141,3.141,0,0,1,3.139-3.135H92.382A3.138,3.138,0,0,1,95.516,74.4v5.18a3.139,3.139,0,0,1-3.134,3.135M3.139,73.524a.875.875,0,0,0-.877.872v5.18a.876.876,0,0,0,.877.872H92.382a.873.873,0,0,0,.871-.872V74.4a.872.872,0,0,0-.871-.872Z" transform="translate(0 -39.006)"/><path class="a" d="M34.341,166.309H3.139A3.14,3.14,0,0,1,0,163.175V160.65a3.14,3.14,0,0,1,3.139-3.134h31.2a3.138,3.138,0,0,1,3.135,3.134v2.526a3.138,3.138,0,0,1-3.135,3.134m-31.2-6.53a.875.875,0,0,0-.877.87v2.526a.875.875,0,0,0,.877.87h31.2a.873.873,0,0,0,.872-.87V160.65a.873.873,0,0,0-.872-.87Z" transform="translate(0 -86.219)"/><path class="a" d="M162.574,166.309H131.367a3.137,3.137,0,0,1-3.132-3.134V160.65a3.137,3.137,0,0,1,3.132-3.134h31.207a3.137,3.137,0,0,1,3.134,3.134v2.526a3.137,3.137,0,0,1-3.134,3.134m-31.207-6.53a.871.871,0,0,0-.869.87v2.526a.871.871,0,0,0,.869.87h31.207a.872.872,0,0,0,.871-.87V160.65a.872.872,0,0,0-.871-.87Z" transform="translate(-70.192 -86.219)"/><path class="a" d="M165.29,219.317H136.9a1.131,1.131,0,0,1-1.132-1.132V173.208a1.131,1.131,0,0,1,1.132-1.132H165.29a1.131,1.131,0,0,1,1.132,1.132v44.978a1.131,1.131,0,0,1-1.132,1.132m-27.261-2.263h26.13V174.339h-26.13Z" transform="translate(-74.314 -94.189)"/><path class="a" d="M36.9,219.317H8.514a1.131,1.131,0,0,1-1.132-1.132V173.208a1.131,1.131,0,0,1,1.132-1.132H36.9a1.131,1.131,0,0,1,1.132,1.132v44.978a1.131,1.131,0,0,1-1.132,1.132M9.645,217.054H35.773V174.339H9.645Z" transform="translate(-4.041 -94.189)"/></g></svg>