<svg xmlns="http://www.w3.org/2000/svg" xmlns:xlink="http://www.w3.org/1999/xlink" width="35.996" height="26.411" viewBox="0 0 35.996 26.411"><defs><style>.a{fill:#fff;}.b{clip-path:url(#a);}</style><clipPath id="a"><rect class="a" width="35.996" height="26.411"/></clipPath></defs><g transform="translate(0 0)"><g class="b" transform="translate(0 0)"><path class="a" d="M36,26.411H0V5.9l.187-.1A8.248,8.248,0,0,0,4.079.287L4.129,0H31.373l.079.238c.017.052,1.772,5.254,4.236,5.528L36,5.8Zm-35.3-.694H35.3V6.4C32.878,5.82,31.257,1.742,30.877.694H4.706A8.835,8.835,0,0,1,.694,6.312Z" transform="translate(0 0)"/><path class="a" d="M36,13.1H20.361V12.41H35.3V9H.694V12.41h14.2V13.1H0v-4.8H36Z" transform="translate(0 -2.543)"/><rect class="a" width="29.452" height="0.694" transform="translate(3.059 3.262)"/><path class="a" d="M27.414,15.353a.285.285,0,0,1-.3-.3.282.282,0,0,1,.315-.307h.289a.631.631,0,0,1-.148-.393,2.358,2.358,0,0,0-.255-.988,3.62,3.62,0,0,0-3.191-1.938v0a3.623,3.623,0,0,0-3.192,1.938,2.368,2.368,0,0,0-.255.988.639.639,0,0,1-.148.393h.289a.281.281,0,0,1,.314.307.284.284,0,0,1-.3.3h-.3a.49.49,0,0,1,.2.387,1.91,1.91,0,0,0,.194.969,3.623,3.623,0,0,0,3.2,1.963v0a3.625,3.625,0,0,0,3.2-1.963,1.91,1.91,0,0,0,.194-.969.488.488,0,0,1,.2-.387Zm-2.494,1.479-.824.43-.824-.43a7.456,7.456,0,0,0,.141-1.669.522.522,0,0,0-.108-.256,1.222,1.222,0,0,1,.762-2.093,1.162,1.162,0,0,1,1.2,1.175,1.3,1.3,0,0,1-.377.92.486.486,0,0,0-.106.255,8.334,8.334,0,0,0,.14,1.669" transform="translate(-6.285 -3.498)"/></g></g></svg>