<svg xmlns="http://www.w3.org/2000/svg" xmlns:xlink="http://www.w3.org/1999/xlink" width="8.736" height="17.517" viewBox="0 0 8.736 17.517"><defs><style>.a{clip-path:url(#a);}</style><clipPath id="a"><rect width="8.736" height="17.517"/></clipPath></defs><g class="a"><path d="M7.665,0c0,.855,0,1.71,0,2.565,0,.147-.043.18-.181.174-.285-.011-.57-.005-.855,0A1.1,1.1,0,0,0,5.476,3.9c0,.656,0,1.311,0,1.967,0,.135.043.156.165.156.969,0,1.938,0,2.907,0h.188a.334.334,0,0,1-.053.2c-.315.793-.635,1.585-.947,2.379a.21.21,0,0,1-.233.161c-.61-.008-1.22,0-1.83-.007-.151,0-.2.032-.2.193q.008,4.173,0,8.346c0,.222,0,.222-.229.222-.963,0-1.927,0-2.89,0-.137,0-.167-.039-.167-.17q.006-4.2.006-8.4c0-.153-.035-.2-.194-.2-.616.01-1.231,0-1.847.007C.04,8.76,0,8.737,0,8.612Q.008,7.389,0,6.166c0-.124.038-.15.154-.149.627.006,1.254,0,1.881.006.129,0,.161-.033.16-.16q-.009-1.274,0-2.548A3.282,3.282,0,0,1,4.441.168c.226-.079.465-.1.692-.168Z" transform="translate(0)"/></g></svg>