<svg xmlns="http://www.w3.org/2000/svg" xmlns:xlink="http://www.w3.org/1999/xlink" width="873.683" height="431" viewBox="0 0 873.683 431"><defs><style>.a{fill:#fff;}.b{clip-path:url(#a);}</style><clipPath id="a"><rect class="a" width="873.683" height="431" transform="translate(0.447 150.051)"/></clipPath></defs><g transform="translate(-0.447 -150.051)"><g class="b"><path class="a" d="M338.3,564.748a16.839,16.839,0,0,1-12-4.981,17.049,17.049,0,0,1,0-24.048c.11-.11.224-.214.338-.315a17.013,17.013,0,0,1,2.216-21.293,16.943,16.943,0,0,1,24,0,17.055,17.055,0,0,1,4.815,14.223,16.988,16.988,0,1,1-7.054,31.1c-.1.115-.2.228-.315.338a16.839,16.839,0,0,1-12,4.981m2.554-54.618a15.851,15.851,0,0,0-11.292,4.687,16.012,16.012,0,0,0-1.852,20.388l.248.362-.541.484c-.138.121-.277.242-.409.374a16.05,16.05,0,0,0,0,22.635,15.944,15.944,0,0,0,22.584,0c.134-.134.257-.275.379-.416l.479-.537.362.25a15.986,15.986,0,1,0,6.346-28.935l-.7.119.119-.7a16.059,16.059,0,0,0-4.435-14.028,15.851,15.851,0,0,0-11.292-4.687"/><path class="a" d="M356.625,530.087l-.707-.707,55.54-55.658-11.915-11.941.707-.707,12.62,12.648Z"/><rect class="a" width="0.999" height="15.28" transform="matrix(0.708, -0.706, 0.706, 0.708, 382.837, 481.477)"/><path class="a" d="M75.111,547.748c-36.274,0-53.221-34-53.387-34.346l-.105-.216.1-.218c.167-.35,17.113-35.04,53.389-35.04S127.942,512.66,128.1,513.01l.1.213-.1.213c-.162.343-16.715,34.312-52.991,34.312M22.733,513.181c1.5,2.895,18.25,33.567,52.378,33.567s50.527-30.661,51.982-33.529c-1.444-2.913-17.832-34.291-51.982-34.291s-50.887,31.316-52.378,34.253"/><path class="a" d="M74.913,543.678c-14.119,0-25.606-13.835-25.606-30.84S60.794,482,74.913,482s25.6,13.835,25.6,30.84-11.486,30.84-25.6,30.84m0-60.68c-13.568,0-24.606,13.386-24.606,29.84s11.038,29.84,24.606,29.84,24.6-13.386,24.6-29.84S88.48,483,74.913,483"/><path class="a" d="M515.262,548.773a35.843,35.843,0,0,1-12.98-2.657c-6.491-2.529-12.417-7.123-18.647-14.458l-10.984-12.932-8.393,7.16-.649-.76,15.3-13.054c.065-.063,8.256-7.445,19.529-1.583,10.145,5.277,36.843-1.8,40.244-2.733l.686-42.455a5.827,5.827,0,0,1,5.12-5.678l.567-.067-.539,39.636a119.482,119.482,0,0,0,.6,14.962c1.462,13.185-7.664,29.943-23.578,33.872a26.15,26.15,0,0,1-6.282.747m-41.85-30.7L484.4,531.01c6.12,7.2,11.918,11.707,18.249,14.174,6.754,2.63,13.033,3.261,18.659,1.871,15.406-3.8,24.239-20.026,22.824-32.791a120.5,120.5,0,0,1-.61-15.086l.523-38.46a4.826,4.826,0,0,0-3.671,4.6l-.7,43.2-.357.1c-1.227.352-30.195,8.552-41.337,2.758-10.636-5.532-18.092,1.155-18.4,1.442Z"/><path class="a" d="M493.684,538.613a19.723,19.723,0,0,1-3.588-.325l.2-.98c.059.011,5.972,1.174,9.237-1.183a5.105,5.105,0,0,0,2.079-3.693,39.705,39.705,0,0,0,.146-5.355c-.1-5.939-.209-12.08,8.622-14.654l.28.96c-8.1,2.36-8,7.857-7.9,13.676a40.247,40.247,0,0,1-.153,5.492,6.067,6.067,0,0,1-2.488,4.387,11.187,11.187,0,0,1-6.431,1.675"/><path class="a" d="M515.373,533.477a41.073,41.073,0,0,1-13.3-2.335l.356-.935c.149.058,15.09,5.612,25.7-1.035,6.1-3.818,9.645-10.91,10.548-21.079l1,.088c-.933,10.5-4.639,17.849-11.018,21.841a24.848,24.848,0,0,1-13.286,3.455"/><rect class="a" width="28.765" height="1" transform="translate(516.495 562.592) rotate(-52.111)"/><rect class="a" width="18.775" height="1" transform="translate(502.475 562.632) rotate(-52.846)"/><path class="a" d="M366.372,422.471l-2.332-5.716a84.614,84.614,0,0,0-45.978-46.077l-5.7-2.336,5.7-2.336a84.618,84.618,0,0,0,45.978-46.077l2.332-5.716,2.332,5.716a84.624,84.624,0,0,0,45.978,46.077l5.7,2.336-5.7,2.336A84.624,84.624,0,0,0,368.7,416.755ZM315,368.342l3.442,1.41a85.624,85.624,0,0,1,46.525,46.625l1.406,3.446,1.406-3.446A85.63,85.63,0,0,1,414.3,369.752l3.442-1.41-3.442-1.41a85.631,85.631,0,0,1-46.525-46.625l-1.406-3.447-1.406,3.447a85.624,85.624,0,0,1-46.525,46.625Z"/><path class="a" d="M59.719,274.592a19.128,19.128,0,0,1-3.541-.346,16.746,16.746,0,0,1-11.22-7.54,15.993,15.993,0,0,1-1.928-12.767c.169-.631.343-1.26.552-2.017l.122-.442-.415.091c-.766.168-1.426.313-2.068.51-6.318,1.937-11.871.156-16.5-5.294-4.338-5.11-5.23-11.209-2.578-17.638a10.338,10.338,0,0,1,8.318-6.417c6.374-.895,12.976-1.529,19.623-1.885,3.933-.211,7.94-.159,11.814-.109,1.6.021,3.2.041,4.795.045l.093-.5c-.195-.065-.39-.134-.585-.2a6.587,6.587,0,0,0-1.984-.5c-3.614-.088-7.229-.141-10.844-.194-4.012-.059-8.16-.12-12.241-.23a59.3,59.3,0,0,1-7.827-.812c-4.969-.791-8.868-3.21-10.978-6.813-2.135-3.646-2.333-8.306-.557-13.122a16.078,16.078,0,0,1,19.453-10.16l2.408.638c-.022-.1-.043-.2-.065-.3-.143-.672-.267-1.253-.445-1.81-1.977-6.182-.425-11.7,4.61-16.41,4.766-4.454,10.523-5.648,17.111-3.549a10.685,10.685,0,0,1,7.486,8.771,162.065,162.065,0,0,1,1.725,17.067c.195,3.509.193,7.081.19,10.535,0,1.968,0,3.936.03,5.9a15.182,15.182,0,0,0,.276,2.285q.06.348.116.7l.324.024c.056-.262.115-.524.175-.786a13.353,13.353,0,0,0,.412-2.511c.106-3.228.168-6.516.227-9.7.112-5.994.228-12.193.649-18.274.4-5.838,2.2-10.03,5.326-12.46,3.009-2.339,7.208-3.035,12.483-2.07a16.707,16.707,0,0,1,11.376,8.5,15.119,15.119,0,0,1,.553,13.37,3.2,3.2,0,0,0-.158.638l.371-.074a20.286,20.286,0,0,0,2.007-.468c6.208-1.914,11.7-.287,16.309,4.841,4.37,4.858,5.512,10.807,3.3,17.2a10.8,10.8,0,0,1-8.9,7.329,158.12,158.12,0,0,1-16.659,1.711c-3.565.193-7.193.188-10.705.183-2.026,0-4.047-.005-6.071.028a11.578,11.578,0,0,0-2.1.3c-.2.041-.4.082-.6.121l.012.4c.243.03.486.062.729.094.808.1,1.642.214,2.454.245,3.067.114,6.192.183,9.212.25,6.5.144,13.223.293,19.8.894,9.215.842,13.628,5.123,13.886,13.472.258,8.382-5.713,15.917-13.6,17.154a22.557,22.557,0,0,1-6.68-.311c-.832-.119-1.687-.242-2.549-.334.113.561.251,1.25.451,1.9,1.952,6.408.221,11.986-5.144,16.577-5.279,4.516-11.468,5.41-17.9,2.589a10.543,10.543,0,0,1-6.271-8.444c-.809-5.447-1.386-11.317-1.713-17.445-.183-3.45-.157-6.962-.131-10.358.014-1.9.029-3.807.008-5.71a14.4,14.4,0,0,0-.252-2.18c-.033-.2-.066-.4-.1-.6l-.729.043-.106,2.339c-.095,2.075-.191,4.15-.268,6.226-.093,2.494-.145,4.992-.2,7.49-.114,5.377-.233,10.936-.761,16.374-.5,5.16-2.431,9.135-5.576,11.495a12.838,12.838,0,0,1-7.857,2.436m-14.6-24.466-.569,2.062c-.208.755-.382,1.381-.549,2.008A15,15,0,0,0,45.8,266.173a15.754,15.754,0,0,0,10.56,7.09c4.219.8,7.888.137,10.611-1.907,2.916-2.187,4.707-5.919,5.181-10.792.525-5.4.644-10.94.757-16.3.054-2.5.106-5.007.2-7.506.078-2.079.174-4.157.269-6.235l.146-3.237,2.551-.153.061.461c.045.343.1.685.16,1.028a15.325,15.325,0,0,1,.265,2.333c.021,1.909.006,3.819-.008,5.729-.026,3.381-.052,6.877.129,10.3.326,6.1.9,11.935,1.7,17.351a9.579,9.579,0,0,0,5.685,7.675c6.142,2.7,11.81,1.877,16.846-2.433s6.663-9.533,4.837-15.526c-.218-.716-.364-1.447-.482-2.035-.045-.228-.087-.435-.127-.613l-.149-.666.68.058c1.116.1,2.214.253,3.276.4a21.867,21.867,0,0,0,6.383.313c7.391-1.16,12.992-8.248,12.749-16.135-.24-7.746-4.363-11.72-12.978-12.507-6.543-.6-13.247-.747-19.73-.89-3.026-.068-6.154-.137-9.228-.251-.858-.032-1.717-.144-2.547-.253-.381-.05-.76-.1-1.141-.142l-.433-.048-.061-2.136.431-.071c.331-.054.662-.122.993-.19a12.432,12.432,0,0,1,2.284-.322c2.029-.033,4.059-.03,6.088-.028,3.5.005,7.112.01,10.649-.182a156.656,156.656,0,0,0,16.554-1.7,9.835,9.835,0,0,0,8.112-6.667c2.112-6.119,1.069-11.572-3.1-16.209-4.328-4.812-9.468-6.344-15.27-4.555a21.287,21.287,0,0,1-2.107.494c-.351.069-.715.142-1.1.226l-.765.168.169-.765c.06-.27.1-.492.136-.681a3.993,3.993,0,0,1,.23-.889,14.14,14.14,0,0,0-.516-12.5,15.694,15.694,0,0,0-10.674-7.99c-4.984-.911-8.915-.279-11.691,1.876-2.895,2.249-4.557,6.2-4.941,11.74-.42,6.056-.535,12.242-.647,18.224-.059,3.183-.121,6.474-.227,9.711a14.26,14.26,0,0,1-.438,2.7c-.089.4-.179.791-.254,1.186l-.081.44-2.013-.147-.056-.4c-.05-.355-.11-.71-.171-1.065a16.064,16.064,0,0,1-.29-2.437c-.033-1.972-.032-3.946-.03-5.92,0-3.44,0-7-.188-10.478a161.449,161.449,0,0,0-1.713-16.963,9.6,9.6,0,0,0-6.8-7.978c-6.221-1.981-11.645-.862-16.124,3.326-4.73,4.421-6.19,9.594-4.341,15.376.192.6.321,1.207.471,1.9.072.341.149.7.241,1.091l.189.811-4.006-1.063a15.1,15.1,0,0,0-18.261,9.539c-1.67,4.53-1.5,8.888.482,12.271,1.956,3.339,5.605,5.588,10.272,6.33a58.375,58.375,0,0,0,7.7.8c4.074.11,8.22.171,12.228.23,3.619.053,7.237.106,10.854.194a7.47,7.47,0,0,1,2.3.555c.319.114.638.229.959.32l.436.125-.394,2.116-.431.083h0c-1.739,0-3.478-.023-5.219-.045-3.858-.05-7.847-.1-11.748.107-6.617.355-13.19.986-19.537,1.877a9.249,9.249,0,0,0-7.532,5.808c-2.5,6.06-1.664,11.8,2.416,16.609,4.345,5.118,9.541,6.794,15.443,4.986.681-.209,1.36-.358,2.146-.53.381-.084.785-.173,1.22-.276Z"/><rect class="a" width="42.878" height="1" transform="translate(750.398 364.676)"/><rect class="a" width="1" height="42.899" transform="translate(756.693 339.914) rotate(-60.939)"/><rect class="a" width="1.001" height="42.943" transform="matrix(0.849, -0.529, 0.529, 0.849, 774.666, 320.443)"/><rect class="a" width="0.999" height="42.969" transform="translate(799.805 312.15) rotate(-2.968)"/><rect class="a" width="42.952" height="0.999" transform="translate(806.98 355.722) rotate(-64)"/><rect class="a" width="42.908" height="1" transform="translate(811 358.715) rotate(-35.028)"/><rect class="a" width="42.878" height="1" transform="translate(813.062 363.276) rotate(-5.967)"/><rect class="a" width="1" height="42.892" transform="translate(812.268 369.185) rotate(-66.892)"/><rect class="a" width="0.999" height="42.934" transform="translate(809.104 373.051) rotate(-37.868)"/><rect class="a" width="1" height="42.967" transform="translate(804.465 374.894) rotate(-8.901)"/><rect class="a" width="42.959" height="1" transform="matrix(0.343, -0.939, 0.939, 0.343, 784.784, 414.605)"/><rect class="a" width="42.917" height="1" transform="translate(763.099 399.427) rotate(-40.988)"/><path class="a" d="M878.658,879.158H1.384V0H878.658Zm-876.274-1H877.658V1H2.384Z"/><rect class="a" width="876.274" height="1" transform="translate(1.884 439.079)"/><rect class="a" width="876.274" height="1" transform="translate(1.884 292.719)"/><rect class="a" width="1" height="878.158" transform="translate(731.612 0.5)"/><rect class="a" width="1" height="439.079" transform="translate(585.566 439.579)"/><rect class="a" width="1" height="292.754" transform="translate(585.566 0.5)"/><rect class="a" width="1" height="587.584" transform="translate(439.521 0.5)"/><rect class="a" width="1" height="585.404" transform="translate(293.476 293.254)"/><rect class="a" width="1" height="878.158" transform="translate(147.43 0.5)"/><path class="a" d="M220.407,323.557c-3.558,0-9.767-.64-13.768-4.651-5.756-5.767-4.556-16.108-4.5-16.546l.048-.387.386-.048c.435-.054,10.759-1.255,16.512,4.512s4.556,16.108,4.5,16.546l-.048.387-.386.048a24.267,24.267,0,0,1-2.744.139M203.092,302.88c-.157,1.941-.545,10.511,4.254,15.32s13.349,4.42,15.284,4.263c.157-1.942.544-10.511-4.254-15.32s-13.35-4.42-15.284-4.263"/><path class="a" d="M227.822,346.594a24.239,24.239,0,0,1-2.744-.139l-.386-.048-.048-.387c-.054-.438-1.254-10.779,4.5-16.546s16.076-4.566,16.513-4.512l.386.048.048.387c.054.438,1.253,10.779-4.5,16.546-4,4.011-10.21,4.651-13.768,4.651M225.6,345.5c1.937.157,10.487.543,15.284-4.263s4.411-13.378,4.254-15.32c-1.936-.157-10.486-.544-15.285,4.263s-4.41,13.378-4.253,15.32"/><path class="a" d="M227.822,400.318a24.239,24.239,0,0,1-2.744-.139l-.386-.048-.048-.387c-.054-.438-1.254-10.779,4.5-16.546s16.076-4.566,16.513-4.512l.386.048.048.387c.054.438,1.253,10.779-4.5,16.546-4,4.011-10.21,4.651-13.768,4.651m-2.223-1.094c1.937.158,10.487.543,15.284-4.263s4.411-13.378,4.254-15.32c-1.936-.157-10.486-.544-15.285,4.263s-4.41,13.378-4.253,15.32"/><path class="a" d="M220.634,370.822c-3.558,0-9.767-.64-13.768-4.651-5.756-5.767-4.556-16.108-4.5-16.546l.048-.387.386-.048c.435-.054,10.759-1.256,16.512,4.512s4.556,16.108,4.5,16.546l-.048.387-.386.048a24.272,24.272,0,0,1-2.744.139m-17.315-20.677c-.157,1.941-.545,10.511,4.254,15.32s13.35,4.42,15.284,4.263c.157-1.942.544-10.511-4.254-15.32s-13.349-4.42-15.284-4.263"/><path class="a" d="M220.634,425.367c-3.558,0-9.767-.64-13.768-4.651-5.756-5.767-4.556-16.108-4.5-16.546l.048-.387.386-.048c.435-.054,10.759-1.255,16.512,4.512s4.556,16.108,4.5,16.546l-.048.387-.386.048a24.268,24.268,0,0,1-2.744.139M203.319,404.69c-.157,1.941-.545,10.511,4.254,15.32s13.35,4.42,15.284,4.263c.157-1.942.544-10.511-4.254-15.32s-13.349-4.42-15.284-4.263"/><rect class="a" width="1" height="124.057" transform="translate(222.816 315.641)"/><path class="a" d="M513.5,273.525a53.29,53.29,0,0,1-32.877-11.381,28.282,28.282,0,0,1-8.648-11.9c-.692-1.711-1.914-2.672-4.669-3.672l-1.141-.415,5.091-2.351a3.672,3.672,0,0,0,1.919-5.247,4.01,4.01,0,0,0-2.158-2.257,4.183,4.183,0,0,0-3.234.34l-4.845,2.237.321-1.064a8.678,8.678,0,0,0-.432-5.8,35.2,35.2,0,0,1-2.686-14.917,53.523,53.523,0,0,1,30.334-45.562l0-.006.908-.419,0,.006a53.248,53.248,0,0,1,54.244,6.5,35.078,35.078,0,0,1,9.56,11.743,8.634,8.634,0,0,0,4.118,4.1l1.012.447-4.841,2.236c-2.436,1.124-3.145,2.977-2.052,5.357a3.983,3.983,0,0,0,2.174,2.188,3.939,3.939,0,0,0,3.045-.24l5.1-2.354-.429,1.141c-1.032,2.75-1.1,4.306-.253,5.947a28.306,28.306,0,0,1,3.4,14.327,53.462,53.462,0,0,1-30.354,45.977l0,.007-.908.419,0-.007a53.309,53.309,0,0,1-21.7,4.627m-44.747-27.466a6.872,6.872,0,0,1,4.15,3.8,27.29,27.29,0,0,0,8.336,11.493,52.2,52.2,0,0,0,53.539,6.633l-.085-.186.908-.418.085.185a52.468,52.468,0,0,0,29.774-45.114,27.348,27.348,0,0,0-3.291-13.823,6.9,6.9,0,0,1-.186-5.634l-2.919,1.348a4.646,4.646,0,0,1-6.548-2.437c-1.327-2.889-.4-5.325,2.541-6.683l2.911-1.344a9.986,9.986,0,0,1-3.666-4.069A34.086,34.086,0,0,0,545.02,178.4a52.247,52.247,0,0,0-53.216-6.383l.182.4-.908.417-.183-.4a52.528,52.528,0,0,0-29.754,44.706,34.2,34.2,0,0,0,2.617,14.493,10.023,10.023,0,0,1,.7,5.436l2.907-1.342a5.133,5.133,0,0,1,4-.37,4.964,4.964,0,0,1,2.719,2.778,4.644,4.644,0,0,1-2.407,6.571Zm58.3,4.042-14.173-.7-.092-.356c-.047-.181-4.7-18.165-8.239-22.867l-.077-.1a6.926,6.926,0,0,0-2.677-2.467c-5.2-1.8-8.216-4.667-10.77-10.226-4.206-9.158-.747-19.127,8.047-23.189a18.076,18.076,0,0,1,13.918-.687,17.42,17.42,0,0,1,9.759,9.226,19.411,19.411,0,0,1,.631,14.929,6.955,6.955,0,0,0,.164,3.726c1.512,5.817,11.876,21.012,11.98,21.165l.205.3Zm-13.389-1.664,12.916.64,7.914-10.264c-1.518-2.239-10.465-15.584-11.919-21.177a7.5,7.5,0,0,1-.125-4.344,18.4,18.4,0,0,0-.609-14.144,16.425,16.425,0,0,0-9.2-8.706,17.076,17.076,0,0,0-13.151.657c-8.277,3.823-11.527,13.222-7.558,21.864,2.425,5.28,5.283,8,10.189,9.7a7.67,7.67,0,0,1,3.148,2.812l.077.1c3.417,4.541,7.622,20.215,8.316,22.862"/><path class="a" d="M732.031,293.507v-1c80.3,0,145.627-65.469,145.627-145.941h1c0,81.024-65.776,146.941-146.627,146.941"/></g></g></svg>