<svg xmlns="http://www.w3.org/2000/svg" xmlns:xlink="http://www.w3.org/1999/xlink" width="176.314" height="124.707" viewBox="0 0 176.314 124.707"><defs><style>.a{fill:none;}.b{clip-path:url(#a);}.c{fill:#f9f7eb;}</style><clipPath id="a"><rect class="a" width="176.314" height="124.707"/></clipPath></defs><g class="b"><path class="c" d="M24.213,172.994H1.053A1.053,1.053,0,0,1,0,171.941V160.724a1.053,1.053,0,0,1,1.053-1.053H24.213a1.053,1.053,0,0,1,1.053,1.053v11.216a1.053,1.053,0,0,1-1.053,1.053M2.106,170.887H23.159v-9.11H2.106Z" transform="translate(0 -92.406)"/><path class="c" d="M47.372,172.994H1.053A1.053,1.053,0,0,1,0,171.941V160.724a1.053,1.053,0,0,1,1.053-1.053H44.278a1.053,1.053,0,0,1,1.032,1.265,3.74,3.74,0,0,0,.005.575c.008.158.016.31.016.442v2.735a1.444,1.444,0,0,0,1.442,1.442h.6a1.053,1.053,0,0,1,1.053,1.053v4.757a1.053,1.053,0,0,1-1.053,1.053M2.106,170.887H46.318v-2.68a3.554,3.554,0,0,1-3.094-3.519v-2.735c0-.055,0-.114,0-.176H2.106Z" transform="translate(0 -92.406)"/><path class="c" d="M44.278,143.46H1.053A1.053,1.053,0,0,1,0,142.407V129.074a1.053,1.053,0,0,1,1.053-1.053H47.367a1.053,1.053,0,0,1,1.053,1.053l0,9.335a1.053,1.053,0,0,1-1.053,1.054h-.6a1.444,1.444,0,0,0-1.442,1.443v1.5a1.053,1.053,0,0,1-1.053,1.053M2.106,141.354H43.225V140.9a3.554,3.554,0,0,1,3.093-3.52l0-7.257H2.106Z" transform="translate(0 -74.089)"/><path class="c" d="M47.367,232.522H1.053A1.053,1.053,0,0,1,0,231.469V187.349A1.053,1.053,0,0,1,1.053,186.3H47.367a1.053,1.053,0,0,1,1.053,1.053v44.119a1.053,1.053,0,0,1-1.053,1.053M2.106,230.415H46.314V188.4H2.106Z" transform="translate(0 -107.815)"/><path class="c" d="M51.25,240.843H25.719a1.053,1.053,0,0,1-1.053-1.053V219.7a1.053,1.053,0,0,1,.345-.78l1.212-1.1c-.024-14.076,11.9-17.087,12.017-17.116a1.053,1.053,0,0,1,.489,0c.122.029,12.041,3.039,12.014,17.115l1.214,1.1a1.052,1.052,0,0,1,.346.781v20.09a1.053,1.053,0,0,1-1.053,1.053m-24.478-2.106H50.2v-18.57l-1.219-1.1a1.051,1.051,0,0,1-.346-.8c.249-11.82-8.511-14.958-10.147-15.44-1.63.48-10.4,3.616-10.15,15.44a1.052,1.052,0,0,1-.345.8l-1.217,1.1Z" transform="translate(-14.275 -116.136)"/><path class="c" d="M200.526,221.4H161.56a1.053,1.053,0,0,1-1.053-1.053V192.784a1.053,1.053,0,0,1,.388-.816l1.992-1.624c-.125-19.144,17.752-23.21,17.934-23.249a1.06,1.06,0,0,1,.443,0c.182.039,18.059,4.105,17.936,23.249l1.992,1.624a1.053,1.053,0,0,1,.388.816v27.558a1.053,1.053,0,0,1-1.053,1.053m-37.913-2.106h36.86v-26l-2-1.631a1.052,1.052,0,0,1-.387-.84c.391-16.906-13.982-21.094-16.044-21.607-2.057.512-16.436,4.7-16.042,21.607a1.051,1.051,0,0,1-.387.84l-2,1.631Z" transform="translate(-92.89 -96.689)"/><path class="c" d="M197.433,211.62h-55.48a1.053,1.053,0,0,1-1.053-1.053V161.691a1.053,1.053,0,0,1,1.053-1.053h.594a1.445,1.445,0,0,0,1.444-1.442v-7.962a1.053,1.053,0,0,1,1.053-1.053h49.3a1.053,1.053,0,0,1,1.053,1.053v7.9a1.442,1.442,0,0,0,1.442,1.439h.6a1.053,1.053,0,0,1,1.053,1.053l-.005,48.947a1.053,1.053,0,0,1-1.053,1.053m-54.427-2.106H196.38l.005-46.869a3.552,3.552,0,0,1-3.091-3.516v-6.842H146.1V159.2a3.554,3.554,0,0,1-3.091,3.518Z" transform="translate(-81.543 -86.913)"/><path class="c" d="M283.426,113.015H271.216a3.549,3.549,0,0,1-3.543-3.547v-3.722a3.55,3.55,0,0,1,3.543-3.548h12.209a3.551,3.551,0,0,1,3.546,3.548v3.722a3.55,3.55,0,0,1-3.546,3.547m-12.209-8.71a1.441,1.441,0,0,0-1.437,1.442v3.722a1.44,1.44,0,0,0,1.437,1.441h12.209a1.442,1.442,0,0,0,1.439-1.441v-3.722a1.442,1.442,0,0,0-1.439-1.442Z" transform="translate(-154.91 -59.145)"/><path class="c" d="M169.686,131.193H141.942a1.053,1.053,0,0,1-1.053-1.053V118.7a1.055,1.055,0,0,1,.256-.688l.08-.093a1.054,1.054,0,0,1,.581-.342,1.414,1.414,0,0,0,1.16-1.357v-1.434a1.053,1.053,0,0,1,1.053-1.053h25.667a1.053,1.053,0,0,1,1.053,1.053V130.14a1.053,1.053,0,0,1-1.053,1.053M143,129.087h25.637V115.838h-23.56v.373a3.488,3.488,0,0,1-2.077,3.18Z" transform="translate(-81.536 -65.82)"/><path class="c" d="M235.544,131.193H207.805a1.053,1.053,0,0,1-1.053-1.053V114.785a1.053,1.053,0,0,1,1.053-1.053h25.664a1.053,1.053,0,0,1,1.053,1.053v1.265a.934.934,0,0,1,.019.152,1.4,1.4,0,0,0,1.1,1.3,1.055,1.055,0,0,1,.57.357l.147.18a1.053,1.053,0,0,1,.238.667V130.14a1.053,1.053,0,0,1-1.053,1.053m-26.685-2.106h25.632v-9.766a3.468,3.468,0,0,1-2.039-2.828,1.04,1.04,0,0,1-.035-.271v-.383H208.858Z" transform="translate(-119.653 -65.82)"/><path class="c" d="M125.055,89.932H117.52a1.052,1.052,0,0,1-1.053-1.054l.01-10.579a1.053,1.053,0,0,1,1.053-1.052h7.533a1.053,1.053,0,0,1,1.053,1.054l-.008,10.579a1.053,1.053,0,0,1-1.053,1.052m-6.481-2.106H124l.006-8.472h-5.426Z" transform="translate(-67.403 -44.705)"/><path class="c" d="M125.055,47.385H117.52a1.054,1.054,0,0,1-1.053-1.054l.01-9.653a1.054,1.054,0,0,1,1.053-1.052h7.53a1.054,1.054,0,0,1,1.053,1.054l-.005,9.653a1.053,1.053,0,0,1-1.053,1.053m-6.481-2.106H124l0-7.547h-5.424Z" transform="translate(-67.403 -20.617)"/><path class="c" d="M124.035,136.58H110.991a1.053,1.053,0,0,1-1.053-1.053V124.094a1.053,1.053,0,0,1,1.053-1.053H124.03a1.053,1.053,0,0,1,1.053,1.053l.005,11.433a1.053,1.053,0,0,1-1.053,1.054m-11.99-2.106h10.937l0-9.327H112.044Z" transform="translate(-63.624 -71.207)"/><path class="c" d="M124.035,225.987H110.991a1.052,1.052,0,0,1-1.053-1.053l0-48.877A1.053,1.053,0,0,1,111,175h13.039a1.053,1.053,0,0,1,1.053,1.053v48.876a1.053,1.053,0,0,1-1.053,1.053m-11.99-2.106h10.937V177.11H112.049Z" transform="translate(-63.624 -101.28)"/><path class="c" d="M122.4,24.605H116.21a3.432,3.432,0,0,1-3.177-3.633V20.9a7.779,7.779,0,0,1,6.045-7.931,1.05,1.05,0,0,1,.441,0,7.785,7.785,0,0,1,6.059,7.943v.061a3.433,3.433,0,0,1-3.18,3.633m-3.1-9.518a5.684,5.684,0,0,0-4.16,5.789v.1c0,.828.49,1.527,1.071,1.527H122.4c.582,0,1.074-.7,1.074-1.527V20.9c0-.008,0-.016,0-.024a5.682,5.682,0,0,0-4.173-5.788" transform="translate(-65.414 -7.491)"/><path class="c" d="M126.463,7.654h0A1.053,1.053,0,0,1,125.41,6.6l.005-5.385A1.053,1.053,0,0,1,126.468.163h0a1.054,1.054,0,0,1,1.052,1.054L127.516,6.6a1.053,1.053,0,0,1-1.053,1.052" transform="translate(-72.578 -0.094)"/><path class="c" d="M121.632,68.528h-7.55a3.549,3.549,0,0,1-3.543-3.547V62.088a3.55,3.55,0,0,1,3.543-3.548h7.55a3.551,3.551,0,0,1,3.545,3.548V64.98a3.551,3.551,0,0,1-3.545,3.547m-7.55-7.881a1.441,1.441,0,0,0-1.437,1.442V64.98a1.441,1.441,0,0,0,1.437,1.441h7.55a1.442,1.442,0,0,0,1.439-1.441V62.088a1.442,1.442,0,0,0-1.439-1.442Z" transform="translate(-63.971 -33.879)"/><path class="c" d="M120.76,113.177H108.548A3.551,3.551,0,0,1,105,109.629v-3.723a3.551,3.551,0,0,1,3.546-3.548H120.76a3.55,3.55,0,0,1,3.543,3.548v3.723a3.549,3.549,0,0,1-3.543,3.548m-12.212-8.713a1.443,1.443,0,0,0-1.439,1.442v3.723a1.442,1.442,0,0,0,1.439,1.442H120.76a1.441,1.441,0,0,0,1.437-1.442v-3.723a1.441,1.441,0,0,0-1.437-1.442Z" transform="translate(-60.768 -59.237)"/><path class="c" d="M120.385,162.744H106.153a3.552,3.552,0,0,1-3.548-3.548v-5.467a3.552,3.552,0,0,1,3.548-3.548h14.231a3.553,3.553,0,0,1,3.55,3.548V159.2a3.553,3.553,0,0,1-3.55,3.548m-14.231-10.458a1.444,1.444,0,0,0-1.442,1.442V159.2a1.444,1.444,0,0,0,1.442,1.442h14.231a1.445,1.445,0,0,0,1.444-1.442v-5.467a1.445,1.445,0,0,0-1.444-1.442Z" transform="translate(-59.38 -86.913)"/><path class="c" d="M191.57,94.781H140.236a1.053,1.053,0,0,1-1.053-1.053V91.374a1.441,1.441,0,0,0-1.437-1.442h-2.34a1.053,1.053,0,0,1-1.053-1.053V78.3a1.053,1.053,0,0,1,1.053-1.053H196.4a1.053,1.053,0,0,1,1.053,1.053V88.811a1.053,1.053,0,0,1-1.053,1.053H194.06a1.441,1.441,0,0,0-1.437,1.442v2.421a1.053,1.053,0,0,1-1.053,1.053m-50.28-2.108h49.227V91.306a3.55,3.55,0,0,1,3.544-3.548h1.286v-8.4H136.459v8.472h1.287a3.55,3.55,0,0,1,3.543,3.549Z" transform="translate(-77.754 -44.705)"/><path class="c" d="M287.724,89.77h-7.533a1.053,1.053,0,0,1-1.053-1.054l.008-10.58a1.053,1.053,0,0,1,1.053-1.052h7.532a1.053,1.053,0,0,1,1.053,1.054l-.007,10.58a1.053,1.053,0,0,1-1.053,1.052m-6.479-2.106h5.426l.006-8.474h-5.426Z" transform="translate(-161.545 -44.61)"/><path class="c" d="M287.724,47.223h-7.533a1.053,1.053,0,0,1-1.053-1.054l.008-9.652a1.053,1.053,0,0,1,1.053-1.052h7.528a1.054,1.054,0,0,1,1.053,1.054l0,9.652a1.053,1.053,0,0,1-1.053,1.053m-6.479-2.106h5.426l0-7.546h-5.422Z" transform="translate(-161.545 -20.524)"/><path class="c" d="M286.7,136.416H273.65a1.053,1.053,0,0,1-1.053-1.053V123.927a1.053,1.053,0,0,1,1.053-1.053h13.039a1.053,1.053,0,0,1,1.053,1.052l.01,11.436a1.054,1.054,0,0,1-1.053,1.054m-12-2.106h10.942l-.009-9.329H274.7Z" transform="translate(-157.76 -71.111)"/><path class="c" d="M286.7,225.82H273.65a1.053,1.053,0,0,1-1.053-1.053l.005-48.876a1.053,1.053,0,0,1,1.053-1.053H286.7a1.053,1.053,0,0,1,1.053,1.053v48.876a1.053,1.053,0,0,1-1.053,1.053m-12-2.106h10.943v-46.77H274.708Z" transform="translate(-157.76 -101.183)"/><path class="c" d="M285.063,24.444h-6.188a3.432,3.432,0,0,1-3.172-3.636v-.073a7.774,7.774,0,0,1,6.043-7.93,1.05,1.05,0,0,1,.441,0,7.781,7.781,0,0,1,6.056,7.942v.061a3.435,3.435,0,0,1-3.18,3.636m-3.1-9.52a5.68,5.68,0,0,0-4.158,5.787v.1c0,.829.488,1.53,1.066,1.53h6.188c.582,0,1.073-.7,1.073-1.53v-.073c0-.008,0-.016,0-.024a5.678,5.678,0,0,0-4.17-5.787" transform="translate(-159.556 -7.397)"/><path class="c" d="M289.128,7.49h0a1.053,1.053,0,0,1-1.052-1.054l.005-5.385A1.053,1.053,0,0,1,289.133,0h0a1.054,1.054,0,0,1,1.052,1.054l-.005,5.384a1.053,1.053,0,0,1-1.053,1.052" transform="translate(-166.717 0.001)"/><path class="c" d="M284.293,68.363h-7.55a3.551,3.551,0,0,1-3.546-3.548V61.923a3.55,3.55,0,0,1,3.546-3.547h7.55a3.549,3.549,0,0,1,3.543,3.547v2.892a3.55,3.55,0,0,1-3.543,3.548m-7.55-7.881a1.442,1.442,0,0,0-1.44,1.44v2.892a1.442,1.442,0,0,0,1.44,1.442h7.55a1.441,1.441,0,0,0,1.437-1.442V61.923a1.44,1.44,0,0,0-1.437-1.44Z" transform="translate(-158.107 -33.784)"/><path class="c" d="M283.426,113.015H271.216a3.549,3.549,0,0,1-3.543-3.547v-3.722a3.55,3.55,0,0,1,3.543-3.548h12.209a3.551,3.551,0,0,1,3.546,3.548v3.722a3.55,3.55,0,0,1-3.546,3.547m-12.209-8.71a1.441,1.441,0,0,0-1.437,1.442v3.722a1.44,1.44,0,0,0,1.437,1.441h12.209a1.442,1.442,0,0,0,1.439-1.441v-3.722a1.442,1.442,0,0,0-1.439-1.442Z" transform="translate(-154.91 -59.145)"/><path class="c" d="M283.052,162.581H268.818a3.551,3.551,0,0,1-3.548-3.546v-5.469a3.551,3.551,0,0,1,3.548-3.547h14.234a3.551,3.551,0,0,1,3.548,3.547v5.469a3.551,3.551,0,0,1-3.548,3.546m-14.234-10.455a1.443,1.443,0,0,0-1.442,1.44v5.469a1.442,1.442,0,0,0,1.442,1.439h14.234a1.442,1.442,0,0,0,1.442-1.439v-5.469a1.443,1.443,0,0,0-1.442-1.44Z" transform="translate(-153.519 -86.821)"/><path class="c" d="M382.762,172.994H359.6a1.053,1.053,0,0,1-1.053-1.053V160.724a1.053,1.053,0,0,1,1.053-1.053h23.162a1.053,1.053,0,0,1,1.053,1.053v11.216a1.053,1.053,0,0,1-1.053,1.053m-22.108-2.106h21.055v-9.11H360.653Z" transform="translate(-207.501 -92.406)"/><path class="c" d="M350.957,232.522H304.643a1.053,1.053,0,0,1-1.053-1.053V187.349a1.053,1.053,0,0,1,1.053-1.053h46.313a1.053,1.053,0,0,1,1.053,1.053v44.119a1.053,1.053,0,0,1-1.053,1.053m-45.26-2.106H349.9V188.4H305.7Z" transform="translate(-175.696 -107.815)"/><path class="c" d="M354.84,240.843H329.309a1.053,1.053,0,0,1-1.053-1.053V219.7a1.055,1.055,0,0,1,.346-.781l1.214-1.1c-.027-14.076,11.893-17.086,12.015-17.115a1.053,1.053,0,0,1,.489,0c.122.029,12.041,3.039,12.017,17.116l1.212,1.1a1.052,1.052,0,0,1,.345.78v20.09a1.053,1.053,0,0,1-1.053,1.053m-24.478-2.106h23.425V220.166l-1.217-1.1a1.054,1.054,0,0,1-.345-.8c.246-11.82-8.513-14.958-10.15-15.44-1.63.48-10.4,3.616-10.148,15.44a1.054,1.054,0,0,1-.345.8l-1.22,1.1Z" transform="translate(-189.971 -116.136)"/><path class="c" d="M350.95,143.46H307.717a1.053,1.053,0,0,1-1.053-1.053v-1.572a1.442,1.442,0,0,0-1.442-1.44h-.591a1.054,1.054,0,0,1-1.053-1.054l.005-9.267a1.053,1.053,0,0,1,1.053-1.053H350.95A1.053,1.053,0,0,1,352,129.074v13.333a1.053,1.053,0,0,1-1.053,1.053m-42.179-2.106H349.9V130.127H305.689l0,7.191a3.553,3.553,0,0,1,3.086,3.517Z" transform="translate(-175.689 -74.089)"/><path class="c" d="M350.95,172.994H304.631a1.053,1.053,0,0,1-1.053-1.053v-4.827a1.053,1.053,0,0,1,1.053-1.053h.591a1.442,1.442,0,0,0,1.442-1.439V162.01a1.1,1.1,0,0,1,.008-.128c0-.115.008-.241.015-.372a3.8,3.8,0,0,0,.006-.575,1.053,1.053,0,0,1,1.031-1.265H350.95A1.053,1.053,0,0,1,352,160.724v11.216a1.053,1.053,0,0,1-1.053,1.053m-45.265-2.106H349.9v-9.11H308.783c0,.062,0,.121,0,.176a1.205,1.205,0,0,1-.008.122v2.546a3.552,3.552,0,0,1-3.086,3.516Z" transform="translate(-175.689 -92.406)"/></g></svg>