<svg xmlns="http://www.w3.org/2000/svg" xmlns:xlink="http://www.w3.org/1999/xlink" width="28.149" height="36.876" viewBox="0 0 28.149 36.876"><defs><style>.a{fill:#fff;}.b{clip-path:url(#a);}</style><clipPath id="a"><rect class="a" width="28.149" height="36.876"/></clipPath></defs><g class="b"><path class="a" d="M33.228,101.024H24.861a.333.333,0,0,1-.333-.333,4.056,4.056,0,0,0-8.112,0,.333.333,0,0,1-.333.333H7.715a.333.333,0,0,1-.333-.333v-8.8a.333.333,0,0,1,.333-.333H33.228a.334.334,0,0,1,.333.333v8.8a.334.334,0,0,1-.333.333m-8.034-.333h0Zm-.012-.333h7.712V92.226H8.049v8.131h7.712a4.723,4.723,0,0,1,9.423,0" transform="translate(-6.397 -79.346)"/><path class="a" d="M46.753,7.807H26.161a.333.333,0,0,1-.333-.333V3.9a.334.334,0,0,1,.333-.333h2.5V1.745a.339.339,0,0,1,.327-.339c.922-.019,4.024-.126,5.225-.721a3.48,3.48,0,0,0,.33-.2L34.62.437l.013-.008,0,0A3.5,3.5,0,0,1,36.458,0a3.541,3.541,0,0,1,1.823.43l.1.063a3.454,3.454,0,0,0,.324.192c1.2.6,4.3.7,5.225.721a.334.334,0,0,1,.327.333V3.569h2.5a.334.334,0,0,1,.333.333V7.474a.333.333,0,0,1-.333.333M26.495,7.14H46.42v-2.9h-2.5A.333.333,0,0,1,43.59,3.9V2.064a16.2,16.2,0,0,1-5.181-.782,3.969,3.969,0,0,1-.388-.228L37.934,1,37.922.991a3.461,3.461,0,0,0-2.93,0L34.975,1,34.9,1.05a4.033,4.033,0,0,1-.394.232,16.2,16.2,0,0,1-5.18.782V3.9a.333.333,0,0,1-.333.333h-2.5Z" transform="translate(-22.383 0.001)"/><path class="a" d="M37.62,118.719a1.494,1.494,0,1,1,1.494-1.495,1.5,1.5,0,0,1-1.494,1.495m0-2.322a.827.827,0,1,0,.827.827.829.829,0,0,0-.827-.827" transform="translate(-31.306 -100.292)"/><path class="a" d="M151.8,118.719a1.494,1.494,0,1,1,1.494-1.495,1.5,1.5,0,0,1-1.494,1.495m0-2.322a.827.827,0,1,0,.827.827.828.828,0,0,0-.827-.827" transform="translate(-130.253 -100.292)"/><path class="a" d="M32.638,56.567H8.307a.925.925,0,0,1-.925-.923V54.461a.926.926,0,0,1,.925-.925H32.638a.925.925,0,0,1,.924.925v1.183a.925.925,0,0,1-.924.923M8.307,54.2a.258.258,0,0,0-.258.258v1.183a.257.257,0,0,0,.258.257H32.638a.257.257,0,0,0,.257-.257V54.461a.258.258,0,0,0-.257-.258Z" transform="translate(-6.397 -46.395)"/><path class="a" d="M27.225,74.636H.925A.926.926,0,0,1,0,73.712V72.185a.926.926,0,0,1,.925-.924h26.3a.925.925,0,0,1,.924.924v1.527a.925.925,0,0,1-.924.924M.925,71.928a.258.258,0,0,0-.258.257v1.527a.258.258,0,0,0,.258.257h26.3a.257.257,0,0,0,.257-.257V72.185a.257.257,0,0,0-.257-.257Z" transform="translate(0 -61.755)"/><path class="a" d="M10.121,160.107H.925A.925.925,0,0,1,0,159.184v-.744a.925.925,0,0,1,.925-.923h9.2a.925.925,0,0,1,.924.923v.744a.925.925,0,0,1-.924.923m-9.2-1.924a.258.258,0,0,0-.258.257v.744a.258.258,0,0,0,.258.257h9.2a.257.257,0,0,0,.257-.257v-.744a.257.257,0,0,0-.257-.257Z" transform="translate(0 -136.505)"/><path class="a" d="M138.355,160.107h-9.2a.924.924,0,0,1-.923-.923v-.744a.924.924,0,0,1,.923-.923h9.2a.925.925,0,0,1,.924.923v.744a.925.925,0,0,1-.924.923m-9.2-1.924a.257.257,0,0,0-.256.257v.744a.257.257,0,0,0,.256.257h9.2a.257.257,0,0,0,.257-.257v-.744a.257.257,0,0,0-.257-.257Z" transform="translate(-111.129 -136.505)"/><path class="a" d="M144.467,186H136.1a.333.333,0,0,1-.333-.333V172.409a.333.333,0,0,1,.333-.333h8.367a.333.333,0,0,1,.333.333v13.255a.333.333,0,0,1-.333.333m-8.034-.667h7.7V172.743h-7.7Z" transform="translate(-117.656 -149.122)"/><path class="a" d="M16.082,186H7.715a.333.333,0,0,1-.333-.333V172.409a.333.333,0,0,1,.333-.333h8.367a.333.333,0,0,1,.333.333v13.255a.333.333,0,0,1-.333.333m-8.033-.667h7.7V172.743h-7.7Z" transform="translate(-6.397 -149.122)"/></g></svg>