<svg xmlns="http://www.w3.org/2000/svg" xmlns:xlink="http://www.w3.org/1999/xlink" width="93.5" height="101.535" viewBox="0 0 93.5 101.535"><defs><style>.a{fill:#fff;}.b{clip-path:url(#a);}</style><clipPath id="a"><rect class="a" width="93.5" height="101.535"/></clipPath></defs><rect class="a" width="7.033" height="25.277" transform="translate(43.233 75.15)"/><g class="b"><path class="a" d="M92.393,76.265H1.108A1.108,1.108,0,0,1,0,75.158V1.108A1.108,1.108,0,0,1,1.108,0H92.393A1.108,1.108,0,0,1,93.5,1.108v74.05a1.108,1.108,0,0,1-1.108,1.108M2.215,74.05H91.285V2.215H2.215Z"/><path class="a" d="M92.642,66.872a1.108,1.108,0,0,1-1.108-1.108V1.178a1.108,1.108,0,0,1,2.215,0V65.764a1.108,1.108,0,0,1-1.108,1.108" transform="translate(-50.977 -0.039)"/><path class="a" d="M92.473,148.053H1.3a1.108,1.108,0,0,1,0-2.215H92.473a1.108,1.108,0,0,1,0,2.215" transform="translate(-0.106 -81.22)"/><path class="a" d="M41.77,76.676H1.3a1.108,1.108,0,0,1,0-2.215H41.77a1.108,1.108,0,0,1,0,2.215" transform="translate(-0.106 -41.469)"/><path class="a" d="M100.218,226.372H69.341a1.108,1.108,0,0,1,0-2.215h30.878a1.108,1.108,0,1,1,0,2.215" transform="translate(-38 -124.838)"/><path class="a" d="M105.269,156.336a1.234,1.234,0,1,0-1.234,1.234,1.234,1.234,0,0,0,1.234-1.234" transform="translate(-57.252 -86.38)"/><path class="a" d="M138.547,48.482a8.822,8.822,0,1,1,8.822-8.822,8.832,8.832,0,0,1-8.822,8.822m0-15.428a6.607,6.607,0,1,0,6.606,6.607,6.614,6.614,0,0,0-6.606-6.607" transform="translate(-72.247 -17.174)"/><path class="a" d="M143.7,117.284H109.418a1.108,1.108,0,1,1,0-2.215H143.7a1.108,1.108,0,0,1,0,2.215" transform="translate(-60.32 -64.084)"/><path class="a" d="M144.5,87.972H115.631a1.108,1.108,0,0,1-1.108-1.108V81.4a6.432,6.432,0,0,1,6.425-6.425h18.239a6.432,6.432,0,0,1,6.425,6.425v5.468a1.108,1.108,0,0,1-1.108,1.108m-27.765-2.215H143.4V81.4a4.214,4.214,0,0,0-4.209-4.209H120.948a4.214,4.214,0,0,0-4.209,4.209Z" transform="translate(-63.78 -41.753)"/><path class="a" d="M40.475,32.416a7.544,7.544,0,1,1,7.544-7.544,7.552,7.552,0,0,1-7.544,7.544m0-12.873A5.329,5.329,0,1,0,45.8,24.871a5.334,5.334,0,0,0-5.329-5.329" transform="translate(-18.34 -9.65)"/><path class="a" d="M45.446,65.366H21.355a1.108,1.108,0,0,1-1.108-1.108V60.577a6.432,6.432,0,0,1,6.425-6.425H40.129a6.432,6.432,0,0,1,6.425,6.425v3.682a1.108,1.108,0,0,1-1.108,1.108M22.462,63.15H44.338V60.577a4.214,4.214,0,0,0-4.209-4.209H26.672a4.214,4.214,0,0,0-4.209,4.209Z" transform="translate(-11.276 -30.158)"/><path class="a" d="M40.475,103.721a7.544,7.544,0,1,1,7.544-7.544,7.552,7.552,0,0,1-7.544,7.544m0-12.873A5.329,5.329,0,1,0,45.8,96.176a5.334,5.334,0,0,0-5.329-5.329" transform="translate(-18.34 -49.361)"/><path class="a" d="M45.446,136.67H21.355a1.108,1.108,0,0,1-1.108-1.108v-3.681a6.432,6.432,0,0,1,6.425-6.425H40.129a6.432,6.432,0,0,1,6.425,6.425v3.681a1.108,1.108,0,0,1-1.108,1.108m-22.983-2.215H44.338v-2.574a4.214,4.214,0,0,0-4.209-4.209H26.672a4.214,4.214,0,0,0-4.209,4.209Z" transform="translate(-11.276 -69.869)"/></g></svg>