<svg xmlns="http://www.w3.org/2000/svg" xmlns:xlink="http://www.w3.org/1999/xlink" width="18.104" height="18.095" viewBox="0 0 18.104 18.095"><defs><style>.a{clip-path:url(#a);}</style><clipPath id="a"><rect width="18.104" height="18.095"/></clipPath></defs><g class="a"><path d="M4.63,0h8.835a.357.357,0,0,0,.172.031,4.442,4.442,0,0,1,1.427.376,4.875,4.875,0,0,1,3.021,4.61c.038,2.685.011,5.371.008,8.057a4.817,4.817,0,0,1-.886,2.854A4.919,4.919,0,0,1,13,18.091c-2.638.007-5.277,0-7.916,0A4.63,4.63,0,0,1,4.069,18,4.942,4.942,0,0,1,.145,14.277C.07,14.01.059,13.733,0,13.463V4.628c.029-.185.049-.372.09-.554A4.946,4.946,0,0,1,3.817.143C4.083.069,4.361.06,4.63,0M16.49,9.064q0-1.97,0-3.939a3.6,3.6,0,0,0-.182-1.216,3.381,3.381,0,0,0-3.3-2.3Q9.052,1.6,5.094,1.6a3.5,3.5,0,0,0-1.181.18A3.386,3.386,0,0,0,1.605,5.1q-.005,3.948,0,7.9a3.521,3.521,0,0,0,.178,1.181,3.38,3.38,0,0,0,3.293,2.312q3.975.01,7.949,0a3.345,3.345,0,0,0,2.832-1.428,3.4,3.4,0,0,0,.632-2.073q0-1.961,0-3.922" transform="translate(0 0.001)"/><path d="M37.366,42.03a4.663,4.663,0,1,1,4.665-4.665,4.682,4.682,0,0,1-4.665,4.665m3.056-4.656a3.054,3.054,0,1,0-3.061,3.047,3.057,3.057,0,0,0,3.061-3.047" transform="translate(-28.322 -28.321)"/><path d="M96.126,22.594a1.173,1.173,0,1,1-1.176,1.165,1.182,1.182,0,0,1,1.176-1.165" transform="translate(-82.222 -19.565)"/></g></svg>