<svg xmlns="http://www.w3.org/2000/svg" xmlns:xlink="http://www.w3.org/1999/xlink" width="18.69" height="18.692" viewBox="0 0 18.69 18.692"><defs><style>.a{clip-path:url(#a);}</style><clipPath id="a"><rect width="18.69" height="18.692"/></clipPath></defs><g class="a"><path d="M9.335,18.692A9.346,9.346,0,1,1,18.69,9.411a9.334,9.334,0,0,1-9.355,9.281M9.361,1.216a8.131,8.131,0,1,0,8.117,8.172A8.156,8.156,0,0,0,9.361,1.216" transform="translate(0 0)"/><path d="M80.734,80.416A4.609,4.609,0,0,1,84.542,75.6a4.867,4.867,0,0,1,4.327,1.127c.159.139.186.219.013.369-.29.252-.563.524-.83.8-.114.118-.184.108-.306.009A3.337,3.337,0,0,0,84.4,77.37,3.005,3.005,0,0,0,82.452,80.4,2.869,2.869,0,0,0,84.1,83.219a3.408,3.408,0,0,0,3.688-.441c.18-.139.262-.134.4.023.266.291.544.571.832.84.142.133.133.209-.011.333A5.1,5.1,0,0,1,85.1,85.165a5.151,5.151,0,0,1-1.728-.413A4.347,4.347,0,0,1,80.8,81.3a4.517,4.517,0,0,1-.069-.887" transform="translate(-76.067 -71.125)"/></g></svg>